<?xml version="1.0" encoding="utf-8"?>
<svg xmlns="http://www.w3.org/2000/svg" xmlns:xlink="http://www.w3.org/1999/xlink">
    <symbol id="account_detail" viewBox="0 0 24 24" preserveAspectRatio="xMidYMid meet" xmlns="http://www.w3.org/2000/svg">
        <path fill-rule="evenodd" d="M12,2C9.3,2,7.1,4.2,7.1,6.9c0,2,1.3,3.8,3.1,4.5c-2,0.4-3.8,1.3-5.3,2.7C3.1,15.9,2,18.5,2,21c0,0.2,0,0.3,0,0.5C2,21.8,2.2,22,2.5,22h19c0.3,0,0.5-0.2,0.5-0.5c0-0.2,0-0.3,0-0.5c0-2.6-1.1-5.1-2.9-6.9c-1.4-1.4-3.3-2.3-5.3-2.7c1.8-0.7,3.1-2.5,3.1-4.5C16.9,4.2,14.7,2,12,2L12,2z M12,12.3c2.3,0,4.7,0.9,6.3,2.6c1.6,1.6,2.6,3.9,2.6,6.1H3c0-2.3,1-4.5,2.6-6.1C7.3,13.2,9.7,12.3,12,12.3z M12,3c2.1,0,3.8,1.7,3.8,3.8s-1.7,3.8-3.8,3.8S8.2,9,8.2,6.9S9.9,3,12,3z"/>
    </symbol>
    <symbol id="address" viewBox="0 0 24 24" preserveAspectRatio="xMidYMid meet" xmlns="http://www.w3.org/2000/svg">
        <path fill-rule="evenodd" d="M11.3,2.1c0.2-0.1,0.3-0.1,0.5,0l0,0l9.1,6.8C21,9,21.1,9.1,21.1,9.3l0,0v12.3c0,0.2-0.2,0.5-0.5,0.5l0,0h-6.1c-0.2,0-0.5-0.2-0.5-0.5l0,0v-7.3H9v7.3C9,21.8,8.8,22,8.6,22l0,0H2.5C2.2,22,2,21.8,2,21.5l0,0V9.3C2,9.1,2.1,9,2.2,8.9l0,0L11.3,2.1z M11.5,3L2.9,9.5v11.6h5.2v-7.3c0-0.2,0.2-0.5,0.5-0.5l0,0h5.9c0.2,0,0.5,0.2,0.5,0.5l0,0v7.3h5.2V9.5L11.5,3z"/>
    </symbol>
    <symbol id="cart" viewBox="0 0 24 24" preserveAspectRatio="xMidYMid meet" xmlns="http://www.w3.org/2000/svg">
        <path fill-rule="evenodd" d="M8.5,17c1.4,0,2.5,1.1,2.5,2.5S9.9,22,8.5,22S6,20.9,6,19.5S7.1,17,8.5,17z M19.5,17c1.4,0,2.5,1.1,2.5,2.5S20.9,22,19.5,22S17,20.9,17,19.5S18.1,17,19.5,17z M6.8,2C7.5,2,8,2.5,8,3.2l0,0v11h10.4L20.8,7h-9V5.5h9C22,5.5,22,6.8,22,7.1l0,0l-2.5,7.8c-0.2,0.5-0.8,0.9-1.2,0.9l0,0H7.8c-0.8,0-1.2-0.5-1.2-1.2l0,0v-11H3V2H6.8z"/>
    </symbol>
    <symbol id="close-up" viewBox="0 0 24 24" preserveAspectRatio="xMidYMid meet" xmlns="http://www.w3.org/2000/svg">
        <path fill-rule="evenodd" d="M12,6c-0.4,0-0.9,0.2-1.2,0.5L2.5,15c-0.7,0.7-0.7,1.8,0,2.5C2.8,17.8,3.3,18,3.7,18c0.5,0,0.9-0.2,1.2-0.5l7.1-7.2l7.1,7.2c0.7,0.7,1.8,0.7,2.4,0c0.7-0.7,0.7-1.8,0-2.5l-8.3-8.5C12.9,6.2,12.4,6,12,6L12,6z"/>
    </symbol>
    <symbol id="dashboard" viewBox="0 0 24 24" preserveAspectRatio="xMidYMid meet" xmlns="http://www.w3.org/2000/svg">
        <path fill-rule="evenodd" d="M9.5,10.5L9.5,10.5c4.1,3,5,4.4,5,4.4c0.7,1.1,0.3,2.5-0.9,3.2c-1.2,0.6-2.7,0.3-3.4-0.9c0,0-0.9-1.4-1.6-6.4l0,0c0-0.2,0-0.4,0.2-0.5C9.1,10.4,9.3,10.4,9.5,10.5z M9.8,11.9c0.5,2.7,0.9,4.1,1.1,4.6l0,0.1c0,0,0,0.1,0,0.1l0,0c0,0,0,0,0,0c0.3,0.4,0.8,0.7,1.3,0.7c0.3,0,0.5-0.1,0.7-0.2c0.3-0.2,0.6-0.5,0.7-0.8c0.1-0.4,0-0.7-0.1-1.1C13.6,15.4,12.9,14.3,9.8,11.9z M12,5.2c5.5,0,9.9,4.5,9.9,9.9c0,0.3,0,0.6,0,0.9c0,0,0,0,0,0c0,0,0,0,0,0c0,0,0,0,0,0c0,0.3-0.2,0.5-0.5,0.5l-0.1,0c-0.4,0-2.9,0-3.8,0l-0.2,0c0,0-0.1,0-0.1,0l-0.1,0l0,0c-0.3,0-0.5-0.2-0.5-0.5c0-0.3,0.2-0.5,0.5-0.5H21c0-0.2,0-0.3,0-0.5c0-5-4-9-9-9s-9,4-9,9c0,0.2,0,0.3,0,0.5l3.8,0c0.3,0,0.5,0.2,0.5,0.5c0,0.3-0.2,0.5-0.5,0.5l-0.1,0c0,0,0,0-0.1,0l-0.2,0c-0.9,0-3.2,0-3.7,0l-0.1,0l0,0c-0.3,0-0.5-0.2-0.5-0.5c0,0,0,0,0,0l0,0c0,0,0,0,0,0c0-0.3,0-0.6,0-0.9C2.1,9.6,6.5,5.2,12,5.2z"/>
    </symbol>
    <symbol id="download" viewBox="0 0 24 24" preserveAspectRatio="xMidYMid meet" xmlns="http://www.w3.org/2000/svg">
        <path fill-rule="evenodd" d="M11.9,5c1.5,0,3,0.6,4.2,1.7c0.9,0.9,1.4,2,1.6,3.2c2.3,0.4,4.1,2.4,4.1,4.7c0,2.7-2.2,4.8-4.8,4.8H6.2c-2.3,0-4.2-1.9-4.2-4.2c0-2.2,1.8-4.1,4-4.2C5.9,9.6,6.5,7.9,7.7,6.7C8.9,5.6,10.4,5,11.9,5z M11.9,5.9c-1.3,0-2.6,0.5-3.6,1.5C7.2,8.5,6.7,10,6.9,11.5c0,0.1,0,0.3-0.1,0.3C6.7,12,6.6,12,6.4,12H6.2c-1.8,0-3.3,1.5-3.3,3.3s1.5,3.3,3.3,3.3h10.8c2.2,0,4-1.8,4-4c0-2.1-1.6-3.8-3.6-3.9c-0.2,0-0.4-0.2-0.4-0.4c-0.1-1.1-0.6-2.1-1.4-3C14.5,6.4,13.2,5.9,11.9,5.9z M11.9,10.3c0.2,0,0.4,0.2,0.4,0.4v4.7l1.7-1.5c0.2-0.2,0.5-0.1,0.6,0c0.2,0.2,0.1,0.5,0,0.6l-2.4,2.2c-0.1,0.1-0.2,0.1-0.3,0.1c-0.1,0-0.2,0-0.3-0.1l-2.4-2.2c-0.2-0.2-0.2-0.5,0-0.6c0.2-0.2,0.5-0.2,0.6,0l1.7,1.5v-4.7C11.4,10.5,11.6,10.3,11.9,10.3L11.9,10.3z"/>
    </symbol>
    <symbol id="edit" viewBox="0 0 24 24" preserveAspectRatio="xMidYMid meet" xmlns="http://www.w3.org/2000/svg">
        <path fill-rule="evenodd" d="M12.5,3.2l0,1.1H4.8C3.8,4.4,3.1,5.1,3.1,6l0,0l0,13.2c0,0.9,0.7,1.7,1.7,1.7l0,0H18c0.9,0,1.7-0.8,1.7-1.7l0,0l0,0v-7.7h1.1v7.7c0,1.5-1.2,2.8-2.8,2.8l0,0H4.8C3.2,22,2,20.7,2,19.2l0,0V6c0-1.5,1.2-2.7,2.8-2.7l0,0H12.5z M18.1,2.6c0.9-0.9,2.4-0.9,3.2,0c0.4,0.4,0.7,1,0.7,1.6c0,0.6-0.2,1.2-0.7,1.6l0,0l-7.6,7.7c-0.1,0.1-0.2,0.1-0.3,0.1l0,0l-3.2,0.8c0,0-0.1,0-0.1,0c-0.1,0-0.3-0.1-0.4-0.2c-0.1-0.1-0.2-0.3-0.1-0.5l0,0l0.8-3.2c0-0.1,0.1-0.2,0.1-0.3l0,0L18.1,2.6z M17.7,4.7L11.4,11l-0.5,2.2l2.1-0.5l6.3-6.3L17.7,4.7z M20.5,3.5c-0.4-0.4-1.2-0.4-1.6,0l0,0l-0.4,0.4l1.6,1.6l0.4-0.4c0.2-0.2,0.3-0.5,0.3-0.8S20.7,3.7,20.5,3.5z"/>
    </symbol>
    <symbol id="favourite" viewBox="0 0 24 24" preserveAspectRatio="xMidYMid meet" xmlns="http://www.w3.org/2000/svg">
        <path fill-rule="evenodd" d="M7.5,2.5c1.2,0,2.4,0.5,3.4,1.4l0,0L12,5.1l0.9-1c0.9-1,2.1-1.5,3.3-1.6c1.2-0.1,2.4,0.3,3.4,1.2c1.1,1.3,1.7,2.7,1.8,4.2c0.1,1.5-0.4,2.9-1.4,4l0,0l-7.6,8.4c-0.1,0.1-0.3,0.2-0.5,0.2l0,0l-8-8.6C3,10.8,2.5,9.4,2.5,8C2.5,6.6,3,5.2,4,4.1C4.9,3.1,6.2,2.5,7.5,2.5z"/>
    </symbol>
    <symbol id="filter" viewBox="0 0 24 24" preserveAspectRatio="xMidYMid meet" xmlns="http://www.w3.org/2000/svg">
        <path fill-rule="evenodd" d="M12,2c5.5,0,10,4.5,10,10s-4.5,10-10,10S2,17.5,2,12S6.5,2,12,2z M16.5,7.8H7.5c-0.5,0-1,0.3-1.2,0.7C6.1,9,6.2,9.5,6.5,9.9l0,0l4,3.9v3.6c0,0.1,0.1,0.3,0.2,0.4c0.1,0.1,0.3,0.1,0.4,0l0,0l1.8-0.6c0.2-0.1,0.3-0.2,0.3-0.4l0,0v-2.9l4.2-3.9c0.4-0.3,0.5-0.9,0.3-1.3C17.5,8.1,17.1,7.8,16.5,7.8L16.5,7.8z"/>
    </symbol>
    <symbol id="full-screen" viewBox="0 0 24 24" preserveAspectRatio="xMidYMid meet" xmlns="http://www.w3.org/2000/svg">
        <path fill-rule="evenodd" d="M10.3,11.4c0.6,0,1.1-0.4,1.1-1c0-0.3-0.1-0.6-0.3-0.8L8,6.5L5.2,3.8L8.7,4h0.9c0.6,0,1-0.4,1-1s-0.5-1-1-1H3.8C2.7,2,2,2.6,2,3.8v5.8c0,0.6,0.4,1,1,1c0.6,0,1-0.4,1-1V8.7L3.8,5.2L6.5,8l3.1,3.2C9.8,11.3,10.1,11.4,10.3,11.4z M20.2,22c1.1,0,1.8-0.7,1.8-1.8v-5.8c0-0.6-0.4-1-1-1c-0.6,0-1,0.4-1,1v0.8l0.2,3.5L17.5,16l-3.1-3.2c-0.2-0.2-0.4-0.3-0.7-0.3c-0.6,0-1.1,0.4-1.1,1c0,0.3,0.1,0.6,0.3,0.8l3.1,3.1l2.8,2.6L15.3,20h-0.9c-0.6,0-1,0.4-1,1s0.4,1,1,1H20.2z"/>
    </symbol>
    <symbol id="half-star" viewBox="0 0 24 24" preserveAspectRatio="xMidYMid meet" xmlns="http://www.w3.org/2000/svg">
        <path fill-rule="evenodd" d="M18.2,20.9c0.4-0.3,0.5-0.8,0.2-1.4L16.5,14l4.8-3.4c0.6-0.4,0.8-0.8,0.7-1.3s-0.6-0.7-1.3-0.7l-5.8,0L13,3c-0.2-0.7-0.6-1-1-1c-0.5,0-0.8,0.4-1.1,1L9.2,8.6l-5.8,0C2.6,8.6,2.2,8.8,2,9.2c-0.2,0.5,0.1,0.9,0.7,1.3L7.5,14l-1.9,5.5c-0.2,0.7-0.2,1.2,0.2,1.4c0.4,0.3,0.9,0.2,1.4-0.2l4.7-3.5l4.7,3.5C17.3,21.1,17.8,21.2,18.2,20.9z M16.7,19l-4.2-3.2c-0.2-0.1-0.3-0.2-0.5-0.2V4.4c0,0,0,0,0,0.1l1.5,5.1c0.1,0.4,0.4,0.5,0.8,0.5l5.3-0.1c0,0,0.1,0,0.1,0c0,0,0,0,0,0.1l-4.4,3c-0.4,0.2-0.4,0.5-0.3,0.9L16.7,19C16.8,19,16.8,19,16.7,19C16.8,19.1,16.7,19,16.7,19z"/>
    </symbol>
    <symbol id="logout" viewBox="0 0 24 24" preserveAspectRatio="xMidYMid meet" xmlns="http://www.w3.org/2000/svg">
        <path fill-rule="evenodd" d="M21.3,12.1c0,3.2-1.6,6.2-4.3,8c-2.7,1.8-6.1,2.1-9.1,0.8c-3-1.3-5.1-3.9-5.7-7.1c-0.6-3.2,0.5-6.4,2.8-8.7C5.2,5.1,5.4,5,5.6,5C5.7,5,5.9,5.1,6,5.2c0.1,0.1,0.2,0.3,0.2,0.5c0,0.2-0.1,0.4-0.2,0.5C4.4,7.7,3.5,9.8,3.5,12c0,2.2,0.8,4.3,2.4,5.9c1.5,1.6,3.7,2.5,5.9,2.5s4.3-0.9,5.9-2.5c1.5-1.6,2.4-3.7,2.4-5.9c0-2.2-0.9-4.3-2.5-5.8c-0.1-0.1-0.2-0.3-0.2-0.5c0-0.2,0.1-0.4,0.2-0.5C17.5,5.1,17.7,5,17.9,5c0.2,0,0.4,0.1,0.5,0.2C20.3,7,21.3,9.5,21.3,12.1L21.3,12.1z M11.7,13.2c0.2,0,0.4-0.1,0.5-0.2c0.1-0.1,0.2-0.3,0.2-0.5V2.9c0-0.4-0.3-0.7-0.7-0.7S11,2.6,11,2.9v9.5c0,0.2,0.1,0.4,0.2,0.5C11.3,13.1,11.5,13.2,11.7,13.2L11.7,13.2z"/>
    </symbol>
    <symbol id="close_menu" viewBox="0 0 24 24" preserveAspectRatio="xMidYMid meet" xmlns="http://www.w3.org/2000/svg">
        <path fill-rule="evenodd" d="M18.1,4.3L20,6.3l-6.1,6.1l6.1,6.1l-1.9,1.9L12,14.3l-6.1,6.1L4,18.5l6.1-6.1L4,6.3l1.9-1.9l6.1,6.1L18.1,4.3z"/>
    </symbol>
    <symbol id="minus" viewBox="0 0 24 24" preserveAspectRatio="xMidYMid meet" xmlns="http://www.w3.org/2000/svg">
        <path fill-rule="evenodd" d="M21.7,14.2H2.4C1,14.2,0,13.5,0,12.1C0,10.8,0.9,10,2.4,10h19.3c1.4,0,2.3,0.8,2.3,2.1C24,13.5,23.1,14.2,21.7,14.2z"/>
    </symbol>
    <symbol id="nav-home" viewBox="0 0 24 24" preserveAspectRatio="xMidYMid meet" xmlns="http://www.w3.org/2000/svg">
        <path fill-rule="evenodd" d="M11.9,2.1L3.3,8.8C3.1,8.9,3,9.1,3,9.3v12C3,21.7,3.3,22,3.7,22h5.9c0.3,0,0.7-0.3,0.7-0.7V18c0-1.2,1-2.2,2.2-2.2s2.2,1,2.2,2.2v3.3c0,0.3,0.3,0.7,0.7,0.7H21c0.3,0,0.7-0.3,0.7-0.7v-12c0-0.2-0.1-0.4-0.3-0.5l-8.7-6.7C12.4,1.9,12.2,2,11.9,2.1z"/>
    </symbol>
    <symbol id="nav-next" viewBox="0 0 24 24" preserveAspectRatio="xMidYMid meet" xmlns="http://www.w3.org/2000/svg">
        <path fill-rule="evenodd" d="M18,12c0-0.4-0.2-0.9-0.5-1.2L9,2.5c-0.7-0.7-1.8-0.7-2.5,0C6.2,2.8,6,3.3,6,3.7c0,0.5,0.2,0.9,0.5,1.2l7.2,7.1l-7.2,7.1c-0.7,0.7-0.7,1.8,0,2.4c0.7,0.7,1.8,0.7,2.5,0l8.5-8.3C17.8,12.9,18,12.4,18,12L18,12z"/>
    </symbol>
    <symbol id="nav-prev" viewBox="0 0 24 24" preserveAspectRatio="xMidYMid meet" xmlns="http://www.w3.org/2000/svg">
        <path fill-rule="evenodd" d="M6,12c0-0.4,0.2-0.9,0.5-1.2L15,2.5c0.7-0.7,1.8-0.7,2.5,0C17.8,2.8,18,3.3,18,3.7
	c0,0.5-0.2,0.9-0.5,1.2L10.3,12l7.2,7.1c0.7,0.7,0.7,1.8,0,2.4c-0.7,0.7-1.8,0.7-2.5,0l-8.5-8.3C6.2,12.9,6,12.4,6,12L6,12z"/>
    </symbol>
    <symbol id="open-down" viewBox="0 0 24 24" preserveAspectRatio="xMidYMid meet" xmlns="http://www.w3.org/2000/svg">
        <path fill-rule="evenodd" d="M12,18c0.4,0,0.9-0.2,1.2-0.5L21.5,9c0.7-0.7,0.7-1.8,0-2.5C21.2,6.2,20.7,6,20.3,6c-0.5,0-0.9,0.2-1.2,0.5L12,13.7L4.9,6.5c-0.7-0.7-1.8-0.7-2.4,0C1.8,7.2,1.8,8.3,2.5,9l8.3,8.5C11.1,17.8,11.6,18,12,18L12,18z"/>
    </symbol>
    <symbol id="order-results" viewBox="0 0 24 24" preserveAspectRatio="xMidYMid meet" xmlns="http://www.w3.org/2000/svg">
        <path fill-rule="evenodd" d="M7.1,7.1c0.4,0,0.7,0.3,0.7,0.7l0,0v0c0,0.5,0,1,0,1.5l0,0l0,6.8l3.9,0c0,0,0.1,0,0.1,0l0,0l0,0l0,0l0,0l0,0l-0.1,0l0,0l-0.1,0c-0.1,0-0.3,0-0.4,0.1l-0.2,0.2l0.5,0l-0.3,0.3c0.1,0,0.2,0,0.3,0h0c0.1,0,0.1,0,0.2-0.1l0,0l0,0c0.1-0.1,0.1-0.2,0.1-0.3l0-0.1l0,0l0,0l0,0l0,0l0,0.1l0,0l0,0l0,0l0,0l0,0l0,0l0,0l0,0.1c0,0.1,0,0.2-0.1,0.2l0,0l-4.6,4.6c-0.1,0.1-0.3,0.1-0.4,0l-0.1,0l-4.6-4.6c-0.2-0.2-0.1-0.6,0.2-0.6l0,0h0c0.4,0,0.7,0,1.1,0l0,0l2.8,0l0-8.3C6.4,7.4,6.6,7.2,7.1,7.1L7.1,7.1z M21.5,6.7l-0.3,0l0.3,0.3l-0.5,0l0.2,0.2l0,0c0.1,0.1,0.2,0.1,0.3,0.1l0.1,0l0.1,0l0,0l0.1,0l0,0c0.1-0.1,0.1-0.2,0.1-0.3l0-0.1l0,0l0,0l0,0l0,0l0,0l0,0l0,0l0,0l0,0l0,0.1c0,0.1-0.1,0.2-0.2,0.3l0,0l0,0l0,0l0,0l0,0l0,0l0,0l0,0l-0.1,0h0c-0.4,0-0.7,0-1.1,0l0,0l-2.8,0l0,8.3c0,0.3-0.3,0.6-0.6,0.7l-0.1,0c-0.4,0-0.7-0.3-0.7-0.7l0,0v0c0-0.5,0-1,0-1.5l0,0l0-6.8l-3.9,0c-0.3,0-0.4-0.3-0.3-0.5l0-0.1l4.6-4.6c0.1-0.1,0.4-0.1,0.5,0c0.2,0.2,0.4,0.4,0.6,0.6l0,0l2.5,2.5c0.5,0.5,1,1,1.6,1.6l0,0l0,0.1l0-0.1C21.7,6.8,21.6,6.7,21.5,6.7z"/>
    </symbol>
    <symbol id="plus" viewBox="0 0 24 24" preserveAspectRatio="xMidYMid meet" xmlns="http://www.w3.org/2000/svg">
        <path fill-rule="evenodd" d="M12,0.1c1.3,0,2.1,0.9,2.1,2.3l0,7.6l7.6,0c1.4,0,2.3,0.8,2.3,2.1c0,1.3-0.9,2.1-2.3,2.1l-7.6,0l0,7.5c0,1.4-0.8,2.4-2.1,2.4c-1.4,0-2.1-0.9-2.1-2.4l0-7.5l-7.5,0C1,14.2,0,13.5,0,12.1C0,10.8,0.9,10,2.4,10l7.5,0l0-7.6C9.9,1,10.7,0.1,12,0.1z"/>
    </symbol>
    <symbol id="search" viewBox="0 0 24 24" preserveAspectRatio="xMidYMid meet" xmlns="http://www.w3.org/2000/svg">
        <path fill-rule="evenodd" d="M18.6,16.9l3,3c0.5,0.5,0.5,1.3,0,1.8c-0.2,0.2-0.6,0.4-0.9,0.4c-0.3,0-0.6-0.1-0.9-0.4l0,0l-3-3C17.5,18.1,18.1,17.5,18.6,16.9L18.6,16.9z M10.7,2c4.8,0,8.7,3.9,8.7,8.7s-3.9,8.7-8.7,8.7S2,15.6,2,10.7S5.9,2,10.7,2z M10.7,4.5c-3.4,0-6.2,2.8-6.2,6.2S7.3,17,10.7,17s6.2-2.8,6.2-6.2S14.2,4.5,10.7,4.5z"/>
    </symbol>
    <symbol id="service-callcenter" viewBox="0 0 24 24" preserveAspectRatio="xMidYMid meet" xmlns="http://www.w3.org/2000/svg">
        <path fill-rule="evenodd" d="M20.1,12.3l-1.7-2.6c0-0.1-0.1-0.2-0.1-0.3c-0.3-3.2-2.5-5.7-5.5-6.4V2.8c0-0.5-0.4-0.8-0.8-0.8H9.5C9.1,2,8.7,2.4,8.7,2.8v0.4C6,4.3,4,6.9,4,10.1c0,2.3,1.1,4.6,2.9,6.2c0,0,0.1,0.1,0.1,0.3v3.8c0,0.6,0.4,1.1,1,1.1l5.7,0.5h0.1c0.3,0,0.6-0.1,0.8-0.3c0.2-0.2,0.4-0.5,0.4-0.8l0-2.5h1.8c0.9,0,1.7-0.8,1.7-1.7v-2.4h0.6c0.5,0,0.9-0.3,1.1-0.7C20.4,13.2,20.4,12.7,20.1,12.3L20.1,12.3z M12.2,12l-1-1.6c-0.1-0.3-0.5-0.4-0.8-0.2c-0.3,0.1-0.4,0.5-0.2,0.8l1,1.6c-0.2,0-0.3,0.1-0.5,0.1c-1.1,0-2-0.9-2-2s0.9-2,2-2s2,0.9,2,2C12.8,11.2,12.6,11.7,12.2,12L12.2,12z M10.8,7.6c-0.4,0-0.7,0.1-1,0.2V3.1h2v4.6C11.5,7.7,11.2,7.6,10.8,7.6L10.8,7.6z M19.2,13.1c0,0-0.1,0.1-0.2,0.1h-1c-0.4,0-0.8,0.3-0.8,0.8v2.7c0,0.3-0.3,0.6-0.6,0.6h-2c-0.5,0-0.9,0.4-0.9,0.9l-0.1,2.8l-5.8-0.5v-3.8c0-0.4-0.2-0.8-0.5-1.1C6,14.1,5.1,12,5.1,10c0-2.5,1.5-4.7,3.6-5.6v4c-0.6,0.6-1,1.3-1,2.2c0,1.7,1.4,3.1,3,3.1c0.4,0,0.7-0.1,1-0.2l0.4,0.7c0.2,0.4,0.6,0.6,1,0.6h2c0.3,0,0.5-0.3,0.5-0.5c0-0.3-0.3-0.5-0.5-0.5l-2,0L12.8,13c0.6-0.6,1.1-1.4,1.1-2.3c0-0.9-0.4-1.7-0.9-2.2V4.1c2.4,0.7,4.1,2.8,4.4,5.4c0,0.3,0.1,0.5,0.2,0.8l1.7,2.6C19.3,13,19.3,13,19.2,13.1L19.2,13.1z"/>
    </symbol>
    <symbol id="service-return" viewBox="0 0 24 24" preserveAspectRatio="xMidYMid meet" xmlns="http://www.w3.org/2000/svg">
        <path fill-rule="evenodd" d="M20.6,12c0.1,0,0.2,0,0.3,0.1l0,0c0,0,0,0,0,0l0,0l1,1.4c0.1,0.1,0.1,0.2,0.1,0.3c0,0.1-0.1,0.2-0.1,0.2c-0.1,0.1-0.2,0.1-0.3,0.1c-0.1,0-0.2-0.1-0.2-0.1l0,0l-0.4-0.6c-0.4,5.1-3.9,8.2-9.6,8.6l0,0l0,0c-0.2,0-0.3-0.2-0.4-0.3c0-0.2,0.1-0.4,0.3-0.4c2.5-0.2,8.3-1.2,8.9-7.7l0,0L19.8,14c-0.1,0.1-0.1,0.1-0.2,0.1c-0.1,0-0.2,0-0.3-0.1c-0.1-0.1-0.1-0.1-0.1-0.2c0-0.1,0-0.2,0.1-0.3l0,0h0l1-1.4c0,0,0,0,0,0C20.4,12.1,20.5,12,20.6,12z M12,6.2L12,6.2l6.1,1.3c0,0,0,0,0,0c0.2,0,0.3,0.2,0.3,0.3l0,0v7.5c0,0.2-0.1,0.3-0.2,0.3l0,0l-6.1,2.2c0,0-0.1,0-0.1,0l0,0c0,0-0.1,0-0.1,0l0,0l-6.1-2.2c-0.1-0.1-0.2-0.2-0.2-0.3l0,0V7.8l0,0c0-0.1,0-0.1,0-0.1c0,0,0,0,0,0c0,0,0-0.1,0.1-0.1l0,0c0,0,0,0,0,0l0,0l0,0c0,0,0.1,0,0.1-0.1l0,0l0,0l0,0L12,6.2C12,6.1,12,6.1,12,6.2L12,6.2z M17.7,10.8l-5.4,1.9V17l5.4-1.9V10.8z M6.3,10.7V15l5.4,1.9v-4.3l-1.1-0.4l0,0.6c0,0.2-0.1,0.3-0.2,0.3c0,0-0.1,0-0.1,0c-0.1,0-0.2-0.1-0.3-0.1l0,0v0L9,11.9l-0.8,0.3c-0.1,0-0.2,0-0.3,0c-0.1-0.1-0.2-0.2-0.2-0.3l0,0v-0.8c-0.1,0-0.1,0-0.2,0l0,0L6.3,10.7z M12.7,2c0.1,0,0.2,0,0.3,0.1C13,2.2,13,2.2,13,2.3c0,0.1,0,0.2-0.1,0.3c-0.1,0.1-0.2,0.1-0.2,0.1c-2.5,0.2-8.3,1.2-8.9,7.7l0,0L4.2,10c0.1-0.1,0.1-0.1,0.2-0.1c0.1,0,0.2,0,0.3,0.1C4.7,10,4.8,10,4.8,10.1c0,0.1,0,0.2-0.1,0.3l0,0l-1,1.4c0,0,0,0,0,0c0,0-0.1,0.1-0.1,0.1c0,0,0,0,0,0c-0.1,0-0.2,0-0.3,0c0,0,0,0,0,0c0,0-0.1,0-0.1-0.1l0,0c0,0,0,0,0,0l0,0l-1-1.4C2,10.3,2,10.2,2,10.1C2,10,2.1,10,2.1,9.9c0.1-0.1,0.2-0.1,0.3-0.1c0.1,0,0.2,0.1,0.2,0.1l0,0l0.4,0.6C3.5,5.5,7,2.3,12.7,2z M17.7,9.3l-5.4,1.9V12l5.4-1.9V9.3z M10.6,10.8l0,0.8c0,0,0,0,0,0l0,0v0l1,0.4v-0.8L10.6,10.8z M14.1,7.3L14.1,7.3L8.4,8.6l0,2.8L9,11.2c0.2-0.1,0.3,0,0.4,0.1l0,0l0.4,0.6l0-2.8c0,0,0,0,0,0c0,0,0,0,0-0.1c0,0,0,0,0,0c0,0,0,0,0,0c0,0,0,0,0,0l0,0l0,0l0,0c0,0,0,0,0,0c0,0,0,0,0,0c0,0,0.1,0,0.1-0.1l0,0l0,0c0,0,0,0,0,0l0,0l4.5-1.3L14.1,7.3z M6.3,9.2V10l1.4,0.5V9.7c-0.1,0-0.1,0-0.2,0l0,0L6.3,9.2z M17.7,8.3l-5.4,1.6v0.6l5.4-1.9V8.3z M10.6,9.5l0,0.5c0,0,0,0,0.1,0l0,0v0l1,0.4V9.9L10.6,9.5z M16.1,7.8l-4.6,1.3L12,9.2l4.6-1.3L16.1,7.8z M6.3,8.3v0.2L7.7,9V8.7c0,0-0.1,0-0.1-0.1l0,0L6.3,8.3z M12,6.9l-4.6,1L7.8,8c0,0,0,0,0.1,0l0,0h0L12.5,7L12,6.9z"/>
    </symbol>
    <symbol id="service-security" viewBox="0 0 24 24" preserveAspectRatio="xMidYMid meet" xmlns="http://www.w3.org/2000/svg">
        <path fill-rule="evenodd" d="M12,2.2c0.3-0.3,0.7-0.3,1,0c1.9,1.8,4.2,2.7,7.3,2.7c0.4,0,0.7,0.3,0.7,0.7c0,0.5,0,1,0,1.5c0,0.4,0,0.9,0,1.4L21,9c0,4.8-0.8,10.4-8.3,13c-0.1,0-0.1,0-0.2,0c-0.1,0-0.1,0-0.2,0C4.9,19.4,4,13.9,4,9.2l0-0.5c0-0.5,0-1.1,0-1.6c0-0.6,0-1.1,0-1.6c0-0.4,0.3-0.7,0.7-0.7C7.8,4.9,10.1,4,12,2.2z M12.5,3.6c-1.9,1.7-4.2,2.5-7,2.7c0,0.3,0,0.6,0,0.9c0,0.7,0,1.5,0,2.2l0,0.5c0.1,4.3,1.1,8.5,7.1,10.7c7.3-2.6,7.2-8.3,7.1-13.4c0-0.3,0-0.6,0-0.9C16.7,6.2,14.4,5.3,12.5,3.6z M14.9,9.6c0.3-0.3,0.7-0.3,1,0c0.3,0.3,0.3,0.7,0,1l0,0L12,14.4c-0.1,0.1-0.3,0.2-0.5,0.2c-0.2,0-0.4-0.1-0.5-0.2l0,0l-2-1.9c-0.3-0.3-0.3-0.7,0-1c0.3-0.3,0.7-0.3,1,0l0,0l1.5,1.4L14.9,9.6z"/>
    </symbol>
    <symbol id="service-truckship" viewBox="0 0 24 24" preserveAspectRatio="xMidYMid meet" xmlns="http://www.w3.org/2000/svg">
        <path fill-rule="evenodd" d="M16.6,6c0.5,0,0.8,0.4,0.8,0.8l0,0v0.5h1.5c0.9,0,1.6,0.5,2,1.3l0,0l0.9,2.1c0.1,0.3,0.2,0.6,0.2,0.8l0,0v2.9c0,0.7-0.6,1.3-1.3,1.3l0,0h-0.4c0,1.1-0.9,1.9-2,1.9c-1.1,0-2-0.9-2-1.9l0,0h-5.1c0,1.1-0.9,1.9-2,1.9c-1.1,0-2-0.9-2-1.9l0,0H5.5c-0.3,0-0.5-0.2-0.5-0.5c0-0.3,0.2-0.5,0.5-0.5l0,0h1.9c0.4-0.6,1-1,1.7-1s1.4,0.4,1.7,1l0,0h5.6c0.4-0.6,1-1,1.7-1c0.7,0,1.4,0.4,1.7,1l0,0h0.7c0.1,0,0.2-0.1,0.2-0.2l0,0V12h-3.6c-0.5,0-0.9-0.4-0.9-0.9l0,0v-4H6.2c-0.3,0-0.5-0.3-0.5-0.5C5.6,6.3,5.9,6,6.2,6l0,0H16.6z M9.1,14.9c-0.5,0-0.9,0.4-0.9,0.9c0,0.5,0.4,0.9,0.9,0.9c0.5,0,0.9-0.4,0.9-0.9C10.1,15.3,9.6,14.9,9.1,14.9z M18.3,14.9c-0.5,0-0.9,0.4-0.9,0.9c0,0.5,0.4,0.9,0.9,0.9c0.5,0,0.9-0.4,0.9-0.9C19.2,15.3,18.8,14.9,18.3,14.9z M6.4,12.5c0.3,0,0.5,0.2,0.5,0.5c0,0.3-0.3,0.6-0.6,0.5l0,0H2.5c-0.3,0-0.5-0.2-0.5-0.5c0-0.3,0.2-0.5,0.5-0.5l0,0L6.4,12.5z M7.5,10.4c0.3,0,0.5,0.2,0.5,0.5c0,0.3-0.2,0.5-0.5,0.5l0,0H3.6c-0.3,0-0.5-0.3-0.5-0.5c0-0.3,0.2-0.5,0.5-0.5l0,0L7.5,10.4z M18.9,8.5h-1.5l0,2.5h3.2l-0.8-1.9C19.7,8.7,19.3,8.5,18.9,8.5L18.9,8.5z M8.5,8.3C8.8,8.3,9,8.5,9,8.8c0,0.3-0.2,0.5-0.5,0.5l0,0H4.6c-0.3,0-0.5-0.3-0.5-0.5c0-0.3,0.2-0.5,0.5-0.5l0,0L8.5,8.3z"/>
    </symbol>
    <symbol id="shopper" viewBox="0 0 24 24" preserveAspectRatio="xMidYMid meet" xmlns="http://www.w3.org/2000/svg">
        <path fill-rule="evenodd" d="M11,2.3c1.5-0.5,3.2,0.1,4.1,1.4c0.5,0.6,0.6,1.4,0.6,2.1c0,0.6,0,1.7,0,2.8l-0.8,0c0.8,0,1.5,0,2.3,0c1.3,0,2.1,0.8,2.2,2.1c0.2,2.9,0.3,5.8,0.5,8.7c0.1,1.5-0.8,2.4-2.3,2.4c-1.9,0-3.8,0-5.6,0c-1.8,0-3.7,0-5.5,0c-0.6,0-1.2-0.1-1.7-0.6c-0.5-0.4-0.7-1-0.7-1.6c0.1-1.5,0.2-3,0.2-4.5c0.1-1.5,0.1-3,0.2-4.5c0.1-1.3,0.9-2,2.2-2l1.5,0c0-1.1,0-2.1,0-2.7C8.4,4.1,9.5,2.7,11,2.3z M17.1,9.6l-1.3,0l0,1.4c0.2,0.2,0.4,0.5,0.4,0.8c0,0.5-0.4,1-1,1c-0.5,0-1-0.5-1-1c0-0.3,0.2-0.6,0.4-0.8c0-0.4,0-0.9,0-1.4l-5.2,0c0,0.5,0,1,0,1.4c0.2,0.2,0.4,0.5,0.4,0.8c0,0.5-0.4,1-1,1c-0.5,0-1-0.5-1-1c0-0.3,0.2-0.6,0.4-0.8c0-0.2,0-0.5,0-0.9l0-0.5l0,0l-1.2,0c-1.2,0-1.4,0.3-1.5,1.4c-0.1,1.1-0.1,2.2-0.2,3.3c-0.1,1.7-0.2,3.4-0.3,5c0,0.8,0.3,1.2,1.2,1.2c0.1,0,0.2,0,0.2,0h5.4c1.9,0,3.7,0,5.6,0c0.9,0,1.3-0.4,1.3-1.3c-0.1-1.4-0.2-2.8-0.2-4.2c-0.1-1.4-0.2-2.9-0.2-4.3c0-0.7-0.4-1-0.9-1.1C17.4,9.6,17.2,9.6,17.1,9.6z M14.2,4.3c-0.6-0.9-1.8-1.3-2.9-0.9c-1.1,0.3-1.8,1.3-1.9,2.5c0,0.6,0,1.7,0,2.7l-2.6,0c2.6,0,5.2,0,7.8,0c0-1.1,0-2.3,0-2.9C14.7,5.1,14.5,4.7,14.2,4.3z"/>
    </symbol>
    <symbol id="social-android" viewBox="0 0 24 24" preserveAspectRatio="xMidYMid meet" xmlns="http://www.w3.org/2000/svg">
        <path fill-rule="evenodd" d="M14.9,2l0.3-0.4l0.2-0.4l0.6-0.9C16,0.3,16,0.1,15.9,0c-0.1-0.1-0.2,0-0.3,0.1L15,1l-0.3,0.4l-0.3,0.4c-0.8-0.3-1.7-0.5-2.7-0.5c-0.9,0-1.8,0.2-2.7,0.5L8.9,1.4L8.7,1L8.1,0.1C8,0,7.9,0,7.8,0S7.6,0.3,7.7,0.4l0.6,0.9l0.2,0.4L8.7,2C6.9,2.9,5.6,4.7,5.6,6.7h12.5C18.1,4.7,16.8,2.9,14.9,2L14.9,2z M9.1,4.8c-0.4,0-0.7-0.3-0.7-0.7s0.3-0.7,0.7-0.7c0.4,0,0.7,0.3,0.7,0.7S9.5,4.8,9.1,4.8L9.1,4.8z M18.1,7.6v10.2c0,0.8-0.6,1.5-1.4,1.5l0,0h-1c0,0.1,0.1,0.3,0.1,0.4l0,0v2.9c0,0.8-0.6,1.4-1.3,1.4c-0.7,0-1.3-0.6-1.3-1.4l0,0v-2.9c0-0.1,0-0.3,0.1-0.4l0,0h-2.5c0,0.1,0.1,0.3,0.1,0.4l0,0v2.9c0,0.8-0.6,1.4-1.3,1.4S8,23.4,8,22.6l0,0v-2.9c0-0.1,0-0.3,0.1-0.4l0,0H7c-0.8,0-1.4-0.7-1.4-1.5l0,0V7.6H18.1z M3.3,7.6c0.7,0,1.3,0.6,1.3,1.4l0,0v6c0,0.8-0.6,1.4-1.3,1.4c-0.7,0-1.3-0.6-1.3-1.4l0,0V9C2,8.2,2.6,7.6,3.3,7.6z M20.3,7.6c0.7,0,1.3,0.6,1.3,1.4l0,0v6c0,0.8-0.6,1.4-1.3,1.4S19,15.7,19,14.9l0,0V9C19,8.2,19.6,7.6,20.3,7.6z M14.5,3.4c0.4,0,0.7,0.3,0.7,0.7s-0.3,0.7-0.7,0.7c-0.4,0-0.7-0.3-0.7-0.7S14.1,3.4,14.5,3.4z"/>
    </symbol>
    <symbol id="social-apple" viewBox="0 0 24 24" preserveAspectRatio="xMidYMid meet" xmlns="http://www.w3.org/2000/svg">
        <path fill-rule="evenodd" d="M21.6,17.6c-0.5,1.2-0.8,1.8-1.5,2.9c-1,1.5-2.3,3.5-4,3.5c-1.5,0-1.9-1-3.9-1c-2,0-2.5,1-4,1c-1.7,0-3-1.7-3.9-3.3c-2.7-4.3-3-9.4-1.3-12.1c1.2-1.9,3-3,4.8-3c1.8,0,2.9,1,4.4,1c1.4,0,2.3-1,4.4-1c1.6,0,3.2,0.9,4.4,2.4C17.1,10.3,17.7,16.1,21.6,17.6L21.6,17.6z M15,3.9c0.7-1,1.3-2.4,1.1-3.9c-1.2,0.1-2.7,0.9-3.5,2c-0.8,1-1.4,2.4-1.1,3.8C12.8,5.8,14.2,5,15,3.9L15,3.9z"/>
    </symbol>
    <symbol id="social-facebook" viewBox="0 0 24 24" preserveAspectRatio="xMidYMid meet" xmlns="http://www.w3.org/2000/svg">
        <path fill-rule="evenodd" d="M13.4,22H9.1V12H7V8.6h2.1V6.5c0-2.8,1.2-4.5,4.6-4.5h2.8v3.4h-1.8c-1.3,0-1.4,0.5-1.4,1.4l0,1.7h3.2L16.2,12h-2.8L13.4,22L13.4,22z"/>
    </symbol>
    <symbol id="social-googleplay" viewBox="0 0 24 24" preserveAspectRatio="xMidYMid meet" xmlns="http://www.w3.org/2000/svg">
        <path fill-rule="evenodd" d="M13.9,12.4L2.2,23.7l0,0L1.9,24c0.5-0.3,10.3-5.8,10.3-5.8l4.9-2.8l-0.2-0.1L13.9,12.4z M17.7,8.8L17.7,8.8L17.7,8.8L17.5,9l-1.4,1.4l-1.5,1.5l0,0v0L14.4,12l3.1,3l0.1,0.1h0l0.1,0.1l4.7-2.6c0.5-0.3,0.5-0.7,0.2-0.9c0,0-0.1,0-0.1-0.1l-0.1-0.1C22,11.2,18.2,9.1,17.7,8.8L17.7,8.8z M1.1,0.1C1.1,0.2,1,0.4,1,0.6V12v11.6c0,0.1,0,0.2,0.1,0.3l0,0h0l0.2-0.2L13.4,12l-0.1-0.1h0l0,0L1.3,0.3L1.1,0.1L1.1,0.1L1.1,0.1z M2,0l0.2,0.2l0,0h0l11.6,11.3l1.2-1.2l1.8-1.7l0.2-0.1l-4.9-2.8L2.1,0C2.1,0,2.1,0,2,0C2,0,2,0,2,0L2,0z"/>
    </symbol>
    <symbol id="social-instagram" viewBox="0 0 24 24" preserveAspectRatio="xMidYMid meet" xmlns="http://www.w3.org/2000/svg">
        <path fill-rule="evenodd" d="M12,3.8c2.7,0,3,0,4,0.1c1,0,1.5,0.2,1.9,0.3C18.4,4.4,18.7,4.6,19,5c0.3,0.3,0.6,0.7,0.7,1.1C19.9,6.5,20.1,7,20.1,8c0,1.1,0.1,1.4,0.1,4s0,3-0.1,4c0,1-0.2,1.5-0.3,1.9c-0.2,0.5-0.4,0.8-0.7,1.1c-0.3,0.3-0.7,0.6-1.1,0.7c-0.4,0.1-0.9,0.3-1.9,0.3c-1.1,0-1.4,0.1-4,0.1s-3,0-4-0.1c-1,0-1.5-0.2-1.9-0.3C5.6,19.6,5.3,19.4,5,19c-0.3-0.3-0.6-0.7-0.7-1.1C4.1,17.5,3.9,17,3.9,16c0-1.1-0.1-1.4-0.1-4s0-3,0.1-4c0-1,0.2-1.5,0.3-1.9C4.4,5.6,4.6,5.3,5,5c0.3-0.3,0.7-0.6,1.1-0.7C6.5,4.1,7,3.9,8,3.9C9,3.8,9.3,3.8,12,3.8 M13,2c1.8,0,2.2,0,3.1,0.1c1.1,0,1.8,0.2,2.4,0.5c0.7,0.3,1.2,0.6,1.8,1.2s0.9,1.1,1.2,1.8c0.2,0.6,0.4,1.4,0.5,2.4C22,8.8,22,9.2,22,11l0,0.7l0,0l0,0.3c0,0.1,0,0.2,0,0.3l0,0.7c0,1.8,0,2.2-0.1,3.1c0,1.1-0.2,1.8-0.5,2.4c-0.3,0.7-0.6,1.2-1.2,1.8s-1.1,0.9-1.8,1.2c-0.6,0.2-1.4,0.4-2.4,0.5C15.2,22,14.8,22,13,22l-0.7,0l0,0L12,22c-0.1,0-0.2,0-0.3,0L11,22c-1.8,0-2.2,0-3.1-0.1c-1.1,0-1.8-0.2-2.4-0.5c-0.7-0.3-1.2-0.6-1.8-1.2s-0.9-1.1-1.2-1.8c-0.2-0.6-0.4-1.4-0.5-2.4C2,15.2,2,14.8,2,13V11c0-1.8,0-2.2,0.1-3.1c0-1.1,0.2-1.8,0.5-2.4c0.3-0.7,0.6-1.2,1.2-1.8s1.1-0.9,1.8-1.2c0.6-0.2,1.4-0.4,2.4-0.5C8.8,2,9.2,2,11,2H13z M12,6.9c-2.8,0-5.1,2.3-5.1,5.1s2.3,5.1,5.1,5.1s5.1-2.3,5.1-5.1S14.9,6.9,12,6.9z M12,8.7c1.8,0,3.3,1.5,3.3,3.3s-1.5,3.3-3.3,3.3S8.7,13.9,8.7,12S10.2,8.7,12,8.7z M17.3,5.5c-0.7,0-1.2,0.5-1.2,1.2s0.5,1.2,1.2,1.2s1.2-0.5,1.2-1.2S18,5.5,17.3,5.5z"/>
    </symbol>
    <symbol id="social-linkedin" viewBox="0 0 24 24" preserveAspectRatio="xMidYMid meet" xmlns="http://www.w3.org/2000/svg">
        <path fill-rule="evenodd" d="M0.6,7.7h4.7V24H0.6V7.7z M2.8,5.7L2.8,5.7C1.1,5.7,0,4.4,0,2.8C0,1.2,1.1,0,2.9,0c1.7,0,2.8,1.2,2.8,2.8C5.7,4.4,4.6,5.7,2.8,5.7L2.8,5.7z M24,24h-5.3v-8.4c0-2.2-0.8-3.7-2.7-3.7c-1.4,0-2.2,1-2.5,2c-0.1,0.4-0.1,0.8-0.1,1.3V24H8.1c0,0,0.1-14.9,0-16.3h5.3v2.6c0.3-1.1,2-2.7,4.7-2.7c3.3,0,5.9,2.3,5.9,7.4V24L24,24z"/>
    </symbol>
    <symbol id="social-messenger" viewBox="0 0 24 24" preserveAspectRatio="xMidYMid meet" xmlns="http://www.w3.org/2000/svg">
        <path fill-rule="evenodd" d="M12,0C5.4,0,0,5,0,11.1c0,3.5,1.7,6.6,4.5,8.7V24l4.1-2.2c1.1,0.3,2.2,0.5,3.4,0.5c6.6,0,12-5,12-11.1S18.6,0,12,0L12,0z M13.2,15l-3.1-3.3l-6,3.3l6.6-7l3.1,3.3L19.8,8L13.2,15L13.2,15z"/>
    </symbol>
    <symbol id="social-pinterest" viewBox="0 0 24 24" preserveAspectRatio="xMidYMid meet" xmlns="http://www.w3.org/2000/svg">
        <path fill-rule="evenodd" d="M2,12c0,4.1,2.5,7.6,6,9.2c0-0.7,0-1.5,0.2-2.3c0.2-0.8,1.3-5.4,1.3-5.4s-0.3-0.6-0.3-1.6c0-1.5,0.9-2.6,1.9-2.6c0.9,0,1.3,0.7,1.3,1.5c0,0.9-0.6,2.3-0.9,3.5c-0.3,1.1,0.5,1.9,1.6,1.9c1.9,0,3.2-2.4,3.2-5.3c0-2.2-1.5-3.8-4.2-3.8c-3,0-4.9,2.3-4.9,4.8c0,0.9,0.3,1.5,0.7,2C8,14,8.1,14.1,8,14.4c0,0.2-0.2,0.6-0.2,0.8c-0.1,0.3-0.3,0.3-0.5,0.3c-1.4-0.6-2-2.1-2-3.8c0-2.8,2.4-6.2,7.1-6.2c3.8,0,6.3,2.8,6.3,5.7c0,3.9-2.2,6.9-5.4,6.9c-1.1,0-2.1-0.6-2.4-1.2c0,0-0.6,2.3-0.7,2.7c-0.2,0.8-0.6,1.5-1,2.1C10.1,21.9,11,22,12,22c5.5,0,10-4.5,10-10c0-5.5-4.5-10-10-10C6.5,2,2,6.5,2,12z"/>
    </symbol>
    <symbol id="social-snapchat" viewBox="0 0 24 24" preserveAspectRatio="xMidYMid meet" xmlns="http://www.w3.org/2000/svg">
        <path fill-rule="evenodd" d="M11.8,1C11.2,1,10.2,1.1,9,1.6C8.4,1.9,7.8,2.3,7.3,2.7C6.7,3.3,6.2,4,5.8,4.8C5.3,6,5.4,8.1,5.5,9.7c0,0.2,0,0.4,0,0.5c-0.1,0-0.2,0.1-0.4,0.1c-0.3,0-0.7-0.1-1.1-0.3C3.9,9.9,3.8,9.9,3.7,9.9c-0.2,0-0.5,0.1-0.7,0.2c-0.3,0.2-0.5,0.4-0.5,0.6c0,0.2,0,0.5,0.3,0.8C3,11.8,3.3,12,3.7,12.1c0.1,0,0.2,0.1,0.4,0.1c0.4,0.1,1.1,0.4,1.3,0.8c0.1,0.2,0.1,0.5-0.1,0.8c-0.1,0.1-0.4,1-1.2,1.9c-0.4,0.5-0.9,1-1.5,1.3c-0.6,0.4-1.3,0.7-2,0.8c-0.3,0-0.5,0.3-0.5,0.6c0,0.1,0,0.2,0.1,0.2c0.1,0.3,0.4,0.5,0.8,0.7c0.5,0.2,1.3,0.5,2.3,0.6c0.1,0.1,0.1,0.3,0.1,0.5c0,0.2,0.1,0.4,0.1,0.6c0.1,0.2,0.2,0.5,0.6,0.5c0.2,0,0.3,0,0.6-0.1C5,21.3,5.4,21.3,6,21.3c0.3,0,0.6,0,0.9,0.1c0.6,0.1,1.1,0.5,1.7,0.9c0.9,0.6,1.8,1.3,3.3,1.3c0,0,0.1,0,0.1,0c0,0,0.1,0,0.2,0c1.5,0,2.5-0.7,3.3-1.3c0.6-0.4,1.1-0.8,1.7-0.9c0.3-0.1,0.6-0.1,0.9-0.1c0.5,0,0.9,0.1,1.3,0.1c0.2,0,0.4,0.1,0.6,0.1c0.3,0,0.6-0.2,0.6-0.5c0.1-0.2,0.1-0.4,0.1-0.6c0-0.2,0.1-0.4,0.1-0.5c1-0.2,1.8-0.4,2.3-0.6c0.4-0.2,0.7-0.4,0.8-0.7c0-0.1,0.1-0.2,0.1-0.2c0-0.3-0.2-0.5-0.5-0.6c-3.2-0.5-4.7-3.8-4.7-4c-0.2-0.4-0.2-0.6-0.1-0.8c0.2-0.4,0.8-0.6,1.3-0.8c0.1,0,0.3-0.1,0.4-0.1c0.4-0.2,0.8-0.4,1-0.6c0.2-0.3,0.3-0.5,0.3-0.7c0-0.4-0.3-0.7-0.8-0.9c-0.2-0.1-0.3-0.1-0.5-0.1c-0.1,0-0.3,0-0.5,0.1c-0.4,0.2-0.7,0.3-1,0.3c-0.2,0-0.3,0-0.3-0.1c0-0.1,0-0.3,0-0.5l0-0.1c0.1-1.6,0.2-3.6-0.3-4.8c-0.4-0.8-0.9-1.5-1.5-2.1c-0.5-0.5-1.1-0.9-1.8-1.2C13.8,1.1,12.8,1,12.2,1C12,1,11.8,1,11.8,1z"/>
    </symbol>
    <symbol id="social-tripadvisor" viewBox="0 0 24 24" preserveAspectRatio="xMidYMid meet" xmlns="http://www.w3.org/2000/svg">
        <path fill-rule="evenodd" d="M6.1,9.7c1.6,0,2.9,1.4,2.9,3.2c0,1.7-1.3,3.1-2.9,3.1c-1.6,0-2.9-1.4-2.9-3.1C3.2,11.1,4.5,9.7,6.1,9.7zM17.8,11.7c0.5,0,1,0.5,1,1.1c0,0.6-0.4,1.1-1,1.1c-0.5,0-1-0.5-1-1.1C16.9,12.2,17.3,11.7,17.8,11.7z M6.1,15c-1.1,0-2-1-2-2.2c0-1.2,0.9-2.2,2-2.2c1.1,0,2,1,2,2.2C8.1,14,7.2,15,6.1,15L6.1,15z M24,6.4h-4C18,4.9,15.2,4,12.1,4C8.9,4,5.9,4.9,3.9,6.4H0.1C0.8,7.2,1.2,8.3,1.3,9c-0.7,1.1-1.1,2.4-1.1,3.8c0,3.6,2.7,6.5,5.9,6.5c1.9,0,3.5-0.9,4.6-2.4c0.4,0.6,1.2,1.7,1.3,2c0,0,0.9-1.4,1.3-2c1.1,1.5,2.7,2.4,4.6,2.4c3.3,0,5.9-2.9,5.9-6.5c0-1.4-0.4-2.7-1.1-3.8C22.9,8.3,23.4,7.2,24,6.4L24,6.4z M6.1,18c-2.6,0-4.8-2.3-4.8-5.2c0-2.9,2.1-5.2,4.8-5.2s4.8,2.3,4.8,5.2C10.9,15.7,8.8,18,6.1,18L6.1,18z M6.1,6.3c1.7-0.8,3.8-1.2,5.9-1.2c2.1,0,4,0.4,5.7,1.2c-3.2,0.1-5.7,3-5.7,6.5C12.1,9.2,9.4,6.3,6.1,6.3L6.1,6.3z M18,18c-2.6,0-4.8-2.3-4.8-5.2c0-2.9,2.1-5.2,4.8-5.2c2.6,0,4.8,2.3,4.8,5.2C22.8,15.7,20.6,18,18,18L18,18z M18,9.6c-1.6,0-2.9,1.4-2.9,3.2c0,1.7,1.3,3.1,2.9,3.1c1.6,0,2.9-1.4,2.9-3.1C20.9,11,19.6,9.6,18,9.6L18,9.6z M18,10.6c1.1,0,2,1,2,2.2c0,1.2-0.9,2.2-2,2.2c-1.1,0-2-1-2-2.2C16,11.6,16.9,10.6,18,10.6z M5.9,11.7c0.5,0,1,0.5,1,1.1c0,0.6-0.4,1.1-1,1.1c-0.5,0-1-0.5-1-1.1C4.9,12.2,5.4,11.7,5.9,11.7z"/>
    </symbol>
    <symbol id="social-twitter" viewBox="0 0 24 24" preserveAspectRatio="xMidYMid meet" xmlns="http://www.w3.org/2000/svg">
        <path fill-rule="evenodd" d="M19.6,5.7c0.8-0.5,1.5-1.4,1.8-2.4c-0.8,0.5-1.7,0.9-2.6,1C18.1,3.5,17,3,15.8,3c-2.3,0-4.1,1.9-4.1,4.3c0,0.3,0,0.7,0.1,1C8.4,8.1,5.4,6.4,3.4,3.8C3,4.4,2.8,5.2,2.8,6c0,1.5,0.7,2.8,1.8,3.6C4,9.5,3.4,9.4,2.8,9v0.1c0,2.1,1.4,3.8,3.3,4.2c-0.3,0.1-0.7,0.2-1.1,0.2c-0.3,0-0.5,0-0.8-0.1c0.5,1.7,2,3,3.8,3c-1.4,1.2-3.2,1.9-5.1,1.9c-0.3,0-0.7,0-1-0.1c1.8,1.2,4,1.9,6.3,1.9c7.5,0,11.7-6.6,11.7-12.3c0-0.2,0-0.4,0-0.6c0.8-0.6,1.5-1.4,2-2.2C21.3,5.4,20.5,5.6,19.6,5.7z"/>
    </symbol>
    <symbol id="social-youtube" viewBox="0 0 24 24" preserveAspectRatio="xMidYMid meet" xmlns="http://www.w3.org/2000/svg">
        <path fill-rule="evenodd" d="M6.9,16.4l0-3.2l0.6,0l0.6,0l0-0.5l0-0.5l-1.7,0l-1.7,0v0.5v0.5l0.6,0l0.6,0l0,3.2c0,1.8,0,3.2,0,3.2c0,0,0.1,0,0.5,0l0.5,0L6.9,16.4z M17,16.2c0-0.1,0-0.8,0-0.9c0.1-0.3,0.2-0.4,0.5-0.4c0.2,0,0.3,0.1,0.4,0.3c0.1,0.1,0.1,0.2,0.1,0.6l0,0.5h-0.5C17.1,16.2,17,16.2,17,16.2L17,16.2z M18,19.7c0.5-0.1,0.9-0.5,1-1c0-0.1,0-0.3,0.1-0.5l0-0.4h-0.5h-0.5l0,0.3c0,0.4-0.1,0.5-0.2,0.6c-0.1,0.1-0.4,0.1-0.6,0c-0.2-0.1-0.3-0.4-0.3-1.2l0-0.6l1,0l1,0l0-0.8c0-0.9,0-1.1-0.2-1.4c-0.3-0.6-1.1-0.9-1.8-0.7c-0.5,0.2-0.8,0.5-0.9,1.1c0,0.2,0,0.4,0,1.7c0,1.7,0,1.7,0.2,2.1C16.5,19.6,17.3,19.9,18,19.7L18,19.7z M14,18.7c0.1,0,0.1-0.1,0.1-0.2c0-0.1,0-0.3,0-1.7c0-1.5,0-1.6-0.1-1.7c-0.1-0.2-0.4-0.3-0.7-0.1l-0.1,0.1v1.7v1.7l0.1,0.1C13.6,18.8,13.8,18.8,14,18.7L14,18.7z M14.6,19.7c0.2,0,0.3-0.2,0.4-0.4c0.2-0.4,0.2-0.4,0.2-2.4c0-1.7,0-1.9,0-2.1C15,14.2,14.7,14,14.2,14c-0.3,0-0.5,0.1-0.7,0.4c-0.1,0.1-0.2,0.2-0.2,0.2c0,0,0-0.6,0-1.2v-1.2h-0.5h-0.5v3.8v3.8h0.5h0.5v-0.3c0-0.2,0-0.3,0-0.3c0,0,0.1,0.1,0.2,0.2C13.9,19.7,14.2,19.8,14.6,19.7L14.6,19.7z M9.5,19.7c0.2-0.1,0.4-0.2,0.6-0.4c0.1-0.1,0.2-0.2,0.2-0.2c0,0,0,0.1,0,0.3v0.3h0.5h0.5v-2.8v-2.8h-0.5h-0.5v2.1v2.2l-0.2,0.2c-0.2,0.2-0.2,0.2-0.3,0.2c-0.2,0-0.3,0-0.4-0.1c-0.1-0.1-0.1-0.1-0.1-2.4l0-2.3H8.9H8.4v2.4c0,2.6,0,2.7,0.1,2.9C8.7,19.7,9.1,19.8,9.5,19.7L9.5,19.7z M14.1,10.3c0.2,0,0.3,0,0.5,0l0.5,0c1.5,0,3,0.1,3.4,0.2c0.7,0.1,1.2,0.4,1.5,1.1c0.3,0.5,0.3,0.9,0.4,2.2c0.1,1,0.1,1.6,0.1,2.7c0,1.4-0.1,2.6-0.2,3.2c-0.1,0.7-0.5,1.3-0.9,1.7c-0.3,0.3-0.7,0.4-1.2,0.4c-0.2,0-0.4,0-0.5,0c-0.3,0-2,0.1-2.9,0.1c-1.4,0-3.7,0.1-5,0c-0.6,0-1.4,0-1.6,0c-1.9-0.1-3.1-0.1-3.4-0.2c-0.4-0.1-0.8-0.3-1-0.6c-0.4-0.5-0.6-1-0.7-1.9c-0.2-2-0.2-4.4,0-6.3C3.3,12,3.5,11.4,4,11c0.2-0.2,0.5-0.4,0.8-0.5c0.5-0.1,3-0.2,5.6-0.3l0.6,0C12.1,10.3,13.2,10.3,14.1,10.3z M10.2,2l0.5,0l0,0.1c0,0.1-0.4,1.3-0.8,2.6c0,0.1-0.1,0.4-0.2,0.7l0,0.1C9.6,5.8,9.5,6.1,9.5,6.3L9.4,6.5v1.5c0,0.1,0,0.3,0,0.4l0,0.4c0,0.7,0,0.8,0,0.8c-0.1,0-1.1,0-1.1,0c0,0,0-0.4,0-0.9l0-0.4c0-0.6,0-1.1,0-1.3c0-0.4,0-0.7-0.3-1.5C7.8,5.3,7.6,4.8,7.5,4.4C6.7,1.9,6.8,2,6.8,2C6.9,2,7,2,7.1,2l0.5,0C7.8,2,8,2,8,2c0,0,0.2,0.6,0.4,1.4c0.2,0.8,0.4,1.4,0.4,1.4c0,0,0.1-0.4,0.3-1C9.4,2.7,9.5,2,9.5,2c0,0,0.1,0,0.2,0L10.2,2L10.2,2z M15.2,9.7c-0.3,0-0.4-0.1-0.5-0.4c-0.1-0.3-0.1-0.3-0.1-2.9V3.9h0.5h0.5l0,2.3c0,2.5,0,2.4,0.2,2.5c0.1,0,0.3,0,0.5-0.2l0.2-0.2l0-2.2l0-2.2l0.5,0l0.5,0v2.8v2.8l-0.1,0c-0.1,0-0.9,0-1,0c0,0,0,0,0-0.3V9.1l-0.2,0.1C15.9,9.6,15.6,9.7,15.2,9.7L15.2,9.7z M12.5,8.6c0.2-0.1,0.2-0.2,0.2-1.7c0-1.2,0-1.5,0-1.6c-0.1-0.2-0.1-0.3-0.3-0.4c-0.2-0.1-0.4,0.1-0.5,0.3c-0.1,0.2-0.1,3,0,3.2c0,0.1,0.2,0.3,0.3,0.3C12.2,8.7,12.4,8.7,12.5,8.6L12.5,8.6z M12.1,9.7c-0.5-0.1-0.9-0.3-1.1-0.7c-0.2-0.4-0.2-0.6-0.2-2.3c0-1.3,0-1.4,0.1-1.6c0.1-0.5,0.4-0.8,0.8-1c0.5-0.3,1.1-0.2,1.6,0.1c0.3,0.2,0.5,0.5,0.6,0.9c0,0.2,0,0.3,0,1.7c0,1.7,0,1.8-0.2,2.1c-0.2,0.3-0.5,0.7-0.9,0.8C12.5,9.7,12.2,9.7,12.1,9.7L12.1,9.7z"/>
    </symbol>
    <symbol id="star-active" viewBox="0 0 24 24" preserveAspectRatio="xMidYMid meet" xmlns="http://www.w3.org/2000/svg">
        <path fill-rule="evenodd" d="M18.2,20.9c0.4-0.3,0.5-0.8,0.2-1.4L16.5,14l4.8-3.4c0.6-0.4,0.8-0.8,0.7-1.3s-0.6-0.7-1.3-0.7l-5.8,0L13,3c-0.2-0.7-0.6-1-1-1c-0.5,0-0.8,0.4-1.1,1L9.2,8.6l-5.8,0C2.6,8.6,2.2,8.8,2,9.2c-0.2,0.5,0.1,0.9,0.7,1.3L7.5,14l-1.9,5.5c-0.2,0.7-0.2,1.2,0.2,1.4c0.4,0.3,0.9,0.2,1.4-0.2l4.7-3.5l4.7,3.5C17.3,21.1,17.8,21.2,18.2,20.9z"/>
    </symbol>
    <symbol id="star" viewBox="0 0 24 24" preserveAspectRatio="xMidYMid meet" xmlns="http://www.w3.org/2000/svg">
        <path fill-rule="evenodd" d="M18.2,20.9c0.4-0.3,0.5-0.8,0.2-1.4L16.5,14l4.8-3.4c0.6-0.4,0.8-0.8,0.7-1.3s-0.6-0.7-1.3-0.7l-5.8,0L13,3c-0.2-0.7-0.6-1-1-1c-0.5,0-0.8,0.4-1.1,1L9.2,8.6l-5.8,0C2.6,8.6,2.2,8.8,2,9.2c-0.2,0.5,0.1,0.9,0.7,1.3L7.5,14l-1.9,5.5c-0.2,0.7-0.2,1.2,0.2,1.4c0.4,0.3,0.9,0.2,1.4-0.2l4.7-3.5l4.7,3.5C17.3,21.1,17.8,21.2,18.2,20.9z M16.7,19l-4.2-3.2c-0.3-0.2-0.6-0.2-1,0L7.3,19c0,0-0.1,0-0.1,0c0,0,0,0,0-0.1l1.8-5c0.1-0.4,0.1-0.7-0.3-0.9l-4.4-3c0,0-0.1,0,0-0.1c0,0,0,0,0.1,0L9.7,10c0.4,0,0.6-0.1,0.8-0.5l1.5-5.1c0,0,0-0.1,0.1-0.1c0,0,0,0,0,0.1l1.5,5.1c0.1,0.4,0.4,0.5,0.8,0.5l5.3-0.1c0,0,0.1,0,0.1,0c0,0,0,0,0,0.1l-4.4,3c-0.4,0.2-0.4,0.5-0.3,0.9L16.7,19C16.8,19,16.8,19,16.7,19C16.8,19.1,16.7,19,16.7,19z"/>
    </symbol>
    <symbol id="user" viewBox="0 0 24 24" preserveAspectRatio="xMidYMid meet" xmlns="http://www.w3.org/2000/svg">
        <path fill-rule="evenodd" d="M12,2C9.3,2,6.8,3.1,4.9,4.9C3.1,6.8,2,9.3,2,12s1.1,5.2,2.9,7.1C6.8,20.9,9.3,22,12,22s5.2-1.1,7.1-2.9c1.9-1.9,2.9-4.4,2.9-7.1c0-2.7-1.1-5.2-2.9-7.1C17.2,3.1,14.7,2,12,2z M7.8,19.2v-0.5c0-1.5,0.8-2.9,2.1-3.6c1.3-0.7,2.9-0.7,4.2,0c1.3,0.7,2.1,2.1,2.1,3.6v0.5c-1.3,0.7-2.7,1.1-4.2,1.1S9.1,19.9,7.8,19.2z M9.5,10.3c0-1,0.6-1.9,1.5-2.3c0.9-0.4,2-0.2,2.7,0.5c0.7,0.7,0.9,1.8,0.5,2.7c-0.4,0.9-1.3,1.5-2.3,1.5C10.6,12.8,9.5,11.7,9.5,10.3L9.5,10.3z M17.8,18c-0.2-1.9-1.4-3.6-3.1-4.5c0.9-0.7,1.4-1.8,1.5-2.9c0.1-1.1-0.3-2.3-1.1-3.1c-0.8-0.8-1.9-1.3-3-1.3S9.8,6.6,9,7.4c-0.8,0.8-1.2,2-1.1,3.1c0.1,1.1,0.6,2.2,1.5,2.9c-1.7,0.9-2.9,2.6-3.1,4.5c-1.6-1.5-2.5-3.7-2.5-5.9c0-2.2,0.8-4.4,2.4-6C7.6,4.5,9.8,3.7,12,3.7s4.4,0.9,5.9,2.5c1.6,1.6,2.4,3.7,2.4,6C20.3,14.3,19.4,16.4,17.8,18L17.8,18z"/>
    </symbol>
    <symbol id="user-logged" viewBox="0 0 24 24" preserveAspectRatio="xMidYMid meet" xmlns="http://www.w3.org/2000/svg">
        <path fill-rule="evenodd" d="M12,2C9.3,2,6.8,3.1,4.9,4.9C3.1,6.8,2,9.3,2,12s1.1,5.2,2.9,7.1C6.8,20.9,9.3,22,12,22s5.2-1.1,7.1-2.9c1.9-1.9,2.9-4.4,2.9-7.1c0-2.7-1.1-5.2-2.9-7.1C17.2,3.1,14.7,2,12,2z M17.8,18c-0.2-1.9-1.4-3.6-3.1-4.5c0.9-0.7,1.4-1.8,1.5-2.9c0.1-1.1-0.3-2.3-1.1-3.1c-0.8-0.8-1.9-1.3-3-1.3S9.8,6.6,9,7.4c-0.8,0.8-1.2,2-1.1,3.1c0.1,1.1,0.6,2.2,1.5,2.9c-1.7,0.9-2.9,2.6-3.1,4.5c-1.6-1.5-2.5-3.7-2.5-5.9c0-2.2,0.8-4.4,2.4-6C7.6,4.5,9.8,3.7,12,3.7s4.4,0.9,5.9,2.5c1.6,1.6,2.4,3.7,2.4,6C20.3,14.3,19.4,16.4,17.8,18L17.8,18z"/>
    </symbol>
    <symbol id="view" viewBox="0 0 24 24" preserveAspectRatio="xMidYMid meet" xmlns="http://www.w3.org/2000/svg">
        <path fill-rule="evenodd" d="M12,7c3.7,0,7.1,1.6,9.5,4.5l0.2,0.3l0.3,0.4l-0.3,0.4c-2.3,3-5.9,4.8-9.7,4.8c-3.7,0-7.1-1.6-9.5-4.5l-0.2-0.3L2,12.2l0.3-0.4C4.6,8.8,8.2,7,12,7z M12,8.3c-3.3,0-6.3,1.4-8.4,3.9c2.1,2.5,5.1,3.9,8.4,3.9s6.3-1.4,8.4-3.9C18.3,9.7,15.3,8.3,12,8.3z M12,8.6c2,0,3.6,1.6,3.6,3.6S14,15.8,12,15.8c-2,0-3.6-1.6-3.6-3.6c0-0.5,0.1-0.9,0.3-1.3l0,0l3,0.6L10.3,9C10.8,8.8,11.4,8.6,12,8.6z"/>
    </symbol>

</svg>