<?xml version="1.0" encoding="UTF-8"?>
<svg id="Livello_2" data-name="Livello 2" xmlns="http://www.w3.org/2000/svg" viewBox="0 0 611.9 434.11">
  <defs>
    <style>
      .cls-1 {
        fill: #00504f;
      }

      .cls-2 {
        isolation: isolate;
      }

      .cls-3 {
        fill: #004f4e;
      }
    </style>
  </defs>
  <g id="Layer_1" data-name="Layer 1">
    <g>
      <path class="cls-3" d="M118.93,120.63h39.89v34.2h-39.89v110.19h-38v-110.19h-24.7v-34.2h24.7V54.61c0-44.46,47.13-64.19,84.79-49.64,2.43.94,9.9,3.66,9.11,6.68l-15.53,26.32c-11.18-11.45-30.95-6.91-37.03,7.63-.93,2.21-3.33,10.86-3.33,12.81v62.22h0Z"/>
      <path class="cls-3" d="M325.06,217.54l109.79-37.03c-16.75-108.01-178.04-72.93-153.03,33.22,13.59,57.66,83.79,68.34,128.72,39.86l-17.63-28.47c-21.32,15.2-52.68,16.2-67.85-7.58ZM317.45,180c0-8.13,9.35-22.05,15.7-27.05,14.36-11.31,39.5-11.14,51.72,3.32,2.11,2.5,9.01,11.42,5.07,13.58l-72.49,25.82v-15.67Z"/>
      <path class="cls-3" d="M494.13,121.58c.05.88.37,1.67.94,2.33,3.75,4.35,22.3,31.37,24.24,31.86,1.24.31,1.65-.8,2.34-1.44l25.19-32.75h46.07l-49.27,65.84,58.77,77.59h-46.07l-34.69-45.1-2.35-1.45c-11.09,15.8-24.27,30.41-34.68,46.55h-46.54l57.95-77.4-49.41-66.03h47.51Z"/>
      <rect class="cls-3" x="200.62" width="38" height="265.02"/>
      <path class="cls-3" d="M262.71,417.14c-3.03-2.36-20.13-3.83-25.99-5.36-25.73-6.7-49.15-23.01-67.43-41.79,18.6-17.18,34.26-47.98,15.67-70.78-12.76-15.65-34.59-17.21-47.96-1.39-12.86,15.22-10.49,37.3-3.31,54.56,1.18,2.82,8.06,13.93,8.06,14.77.02,2.13-3.25,3.51-4.85,4.65-30.2,21.61-75.02,26.6-110.31,17.39-8.16-2.13-20-10.39-25.32-.09-6.21,12.02,11.95,16.42,20.05,18.65,45.59,12.56,95.19,2.82,133.24-24.72,23.49,23.68,54.94,44.67,88.59,49.85,5.36.83,15.67,2.74,19.87-.98h0c4.17-3.68,4.19-11.25-.31-14.76ZM155.99,354.3c-6.68-11.49-14.62-34.95-2.9-45.14,6.22-5.41,13.61-3.6,17.74,3.22,5.61,9.27,3.1,18.17-1.75,27.02-1.24,2.26-10.84,16.46-13.09,14.9Z"/>
      <g class="cls-2">
        <g class="cls-2">
          <path class="cls-1" d="M221.77,343.54h11.27l10.69,18.06,10.63-18.06h11.21l-16.97,28.17v17.54h-10.05v-17.8l-16.78-27.92Z"/>
          <path class="cls-1" d="M268.96,357.09c1.02-2.92,2.5-5.47,4.42-7.65,1.92-2.18,4.28-3.88,7.08-5.12,2.8-1.24,5.94-1.86,9.44-1.86s6.7.62,9.48,1.86c2.77,1.24,5.12,2.95,7.04,5.12,1.92,2.18,3.39,4.73,4.42,7.65s1.54,6.09,1.54,9.51-.51,6.44-1.54,9.32c-1.02,2.88-2.5,5.39-4.42,7.52-1.92,2.14-4.27,3.81-7.04,5.03-2.78,1.22-5.93,1.83-9.48,1.83s-6.65-.61-9.44-1.83c-2.8-1.22-5.15-2.89-7.08-5.03-1.92-2.13-3.39-4.64-4.42-7.52-1.02-2.88-1.54-5.99-1.54-9.32s.51-6.58,1.54-9.51ZM278.15,372.2c.45,1.82,1.16,3.45,2.15,4.9.98,1.45,2.26,2.62,3.84,3.49,1.58.88,3.5,1.31,5.76,1.31s4.18-.44,5.76-1.31c1.58-.88,2.86-2.04,3.84-3.49.98-1.45,1.7-3.08,2.15-4.9.45-1.81.67-3.68.67-5.6s-.22-3.95-.67-5.83c-.45-1.88-1.16-3.55-2.15-5.03-.98-1.47-2.26-2.65-3.84-3.52-1.58-.88-3.5-1.31-5.76-1.31s-4.18.44-5.76,1.31c-1.58.88-2.86,2.05-3.84,3.52-.98,1.47-1.7,3.15-2.15,5.03-.45,1.88-.67,3.82-.67,5.83s.22,3.79.67,5.6Z"/>
          <path class="cls-1" d="M352.84,385.77c-3.46,3.01-8.24,4.51-14.34,4.51s-10.98-1.49-14.38-4.48c-3.39-2.99-5.09-7.6-5.09-13.83v-28.43h10.05v28.43c0,1.24.11,2.46.32,3.65.21,1.2.66,2.25,1.34,3.17s1.63,1.67,2.85,2.24,2.85.86,4.9.86c3.59,0,6.06-.8,7.43-2.4,1.37-1.6,2.05-4.11,2.05-7.52v-28.43h10.05v28.43c0,6.19-1.73,10.79-5.19,13.8Z"/>
          <path class="cls-1" d="M391.32,343.54c2.05,0,3.89.33,5.54.99,1.64.66,3.05,1.57,4.23,2.72,1.17,1.15,2.07,2.49,2.69,4,.62,1.52.93,3.15.93,4.9,0,2.69-.57,5.02-1.7,6.98-1.13,1.96-2.98,3.46-5.54,4.48v.13c1.24.34,2.26.86,3.07,1.57.81.7,1.47,1.54,1.98,2.5.51.96.89,2.02,1.12,3.17.23,1.15.39,2.3.48,3.46.04.73.08,1.58.13,2.56.04.98.12,1.98.22,3.01.11,1.02.28,2,.51,2.91.23.92.59,1.7,1.06,2.34h-10.05c-.55-1.45-.9-3.18-1.02-5.19-.13-2.01-.32-3.93-.58-5.76-.34-2.39-1.07-4.14-2.18-5.25-1.11-1.11-2.92-1.67-5.44-1.67h-10.05v17.86h-10.05v-45.72h24.65ZM387.73,364.22c2.31,0,4.03-.51,5.19-1.54s1.73-2.69,1.73-4.99-.58-3.83-1.73-4.83c-1.15-1-2.88-1.5-5.19-1.5h-11.01v12.87h11.01Z"/>
          <path class="cls-1" d="M452.21,343.54c2.18,0,4.16.19,5.96.58,1.79.38,3.33,1.01,4.61,1.89,1.28.88,2.27,2.04,2.98,3.49.7,1.45,1.06,3.24,1.06,5.38,0,2.3-.52,4.23-1.57,5.76-1.05,1.54-2.59,2.8-4.64,3.78,2.82.81,4.92,2.23,6.31,4.26,1.39,2.03,2.08,4.47,2.08,7.33,0,2.3-.45,4.3-1.34,5.99-.9,1.69-2.1,3.06-3.62,4.13-1.52,1.07-3.24,1.86-5.19,2.37-1.94.51-3.94.77-5.99.77h-22.15v-45.72h21.51ZM450.93,362.05c1.79,0,3.27-.43,4.42-1.28,1.15-.85,1.73-2.24,1.73-4.16,0-1.07-.19-1.94-.58-2.62-.38-.68-.9-1.22-1.54-1.6-.64-.38-1.38-.65-2.21-.8-.83-.15-1.7-.22-2.59-.22h-9.41v10.69h10.18ZM451.51,381.45c.98,0,1.92-.1,2.82-.29s1.69-.51,2.37-.96c.68-.45,1.23-1.06,1.63-1.82.41-.77.61-1.75.61-2.95,0-2.35-.66-4.02-1.99-5.03s-3.07-1.5-5.25-1.5h-10.95v12.55h10.76Z"/>
          <path class="cls-1" d="M475.32,357.09c1.02-2.92,2.5-5.47,4.42-7.65,1.92-2.18,4.28-3.88,7.08-5.12,2.79-1.24,5.94-1.86,9.44-1.86s6.7.62,9.48,1.86c2.77,1.24,5.12,2.95,7.04,5.12,1.92,2.18,3.39,4.73,4.42,7.65s1.54,6.09,1.54,9.51-.51,6.44-1.54,9.32c-1.02,2.88-2.5,5.39-4.42,7.52-1.92,2.14-4.27,3.81-7.04,5.03-2.78,1.22-5.93,1.83-9.48,1.83s-6.65-.61-9.44-1.83c-2.8-1.22-5.16-2.89-7.08-5.03-1.92-2.13-3.39-4.64-4.42-7.52-1.02-2.88-1.54-5.99-1.54-9.32s.51-6.58,1.54-9.51ZM484.51,372.2c.45,1.82,1.16,3.45,2.15,4.9.98,1.45,2.26,2.62,3.84,3.49,1.58.88,3.5,1.31,5.76,1.31s4.18-.44,5.76-1.31c1.58-.88,2.86-2.04,3.84-3.49.98-1.45,1.7-3.08,2.14-4.9.45-1.81.67-3.68.67-5.6s-.22-3.95-.67-5.83c-.45-1.88-1.16-3.55-2.14-5.03-.98-1.47-2.26-2.65-3.84-3.52-1.58-.88-3.5-1.31-5.76-1.31s-4.18.44-5.76,1.31c-1.58.88-2.86,2.05-3.84,3.52-.98,1.47-1.7,3.15-2.15,5.03-.45,1.88-.67,3.82-.67,5.83s.22,3.79.67,5.6Z"/>
          <path class="cls-1" d="M545.31,343.54c2.95,0,5.69.47,8.23,1.41,2.54.94,4.74,2.35,6.6,4.23,1.86,1.88,3.31,4.23,4.35,7.04s1.57,6.12,1.57,9.92c0,3.33-.43,6.4-1.28,9.22-.85,2.82-2.14,5.25-3.87,7.3-1.73,2.05-3.88,3.66-6.47,4.83-2.58,1.17-5.62,1.76-9.12,1.76h-19.72v-45.72h19.72ZM544.61,380.81c1.45,0,2.86-.23,4.23-.7,1.37-.47,2.58-1.25,3.65-2.34,1.07-1.09,1.92-2.51,2.56-4.26s.96-3.88.96-6.4c0-2.3-.22-4.39-.67-6.24-.45-1.86-1.18-3.45-2.21-4.77-1.02-1.32-2.38-2.34-4.07-3.04-1.69-.7-3.77-1.06-6.24-1.06h-7.17v28.81h8.96Z"/>
          <path class="cls-1" d="M568.1,343.54h11.27l10.69,18.06,10.63-18.06h11.21l-16.97,28.17v17.54h-10.05v-17.8l-16.78-27.92Z"/>
        </g>
      </g>
    </g>
  </g>
</svg>