<svg xmlns="http://www.w3.org/2000/svg" width="32" height="21" viewBox="0 0 32 21">
  <path fill-rule="evenodd" d="M29.333 3.167H20V.5h9.333v2.667ZM31.635 16.5c-.59 1.73-2.706 4-6.802 4-4.098 0-7.418-2.305-7.418-7.567 0-5.213 3.1-7.893 7.288-7.893 4.109 0 6.618 2.376 7.166 5.901.104.675.146 1.584.127 2.854H21.293c.174 4.281 4.644 4.416 6.118 2.705h4.224Zm-10.248-5.333h6.62c-.14-2.063-1.515-2.959-3.303-2.959-1.955 0-3.036 1.024-3.317 2.959ZM8.62 20.484H0V.528h9.27c7.302.108 7.44 7.259 3.627 9.208 4.615 1.68 4.77 10.748-4.276 10.748ZM4 8.5h4.779c3.344 0 3.874-4-.416-4H4v4Zm4.521 4H4v4.021h4.455c4.073 0 3.824-4.021.066-4.021Z" clip-rule="evenodd"/>
</svg>
