<svg xmlns="http://www.w3.org/2000/svg" width="19" height="22" viewBox="0 0 19 22">
  <path fill-rule="evenodd" d="M3.464 1.464a5 5 0 1 1 7.072 7.071 5 5 0 0 1-7.072-7.07ZM7 2a3 3 0 1 0 0 6 3 3 0 0 0 0-6ZM5 14a3 3 0 0 0-3 3v2a1 1 0 1 1-2 0v-2a5 5 0 0 1 5-5h2.5a1 1 0 1 1 0 2H5Zm9.001-1.5a1 1 0 0 1 1 1v.672a3 3 0 0 1 .95.548l.581-.336a1 1 0 1 1 1 1.732l-.581.336a2.997 2.997 0 0 1 0 1.096l.582.336a1 1 0 1 1-1 1.732l-.582-.336a2.998 2.998 0 0 1-.95.548v.672a1 1 0 1 1-2 0v-.672a2.998 2.998 0 0 1-.95-.548l-.581.336a1 1 0 1 1-1-1.732l.582-.335a3 3 0 0 1 0-1.098l-.582-.335a1 1 0 1 1 1-1.732l.582.336a2.99 2.99 0 0 1 .949-.548V13.5a1 1 0 0 1 1-1Zm-.88 4.026a1.167 1.167 0 0 0 .03-.052 1.001 1.001 0 0 1 1.716.026l.003.006a1 1 0 0 1 0 .988l-.003.006-.003.006a1 1 0 0 1-1.713.02l-.015-.026a1 1 0 0 1-.016-.974Z" clip-rule="evenodd"/>
</svg>
