<svg xmlns="http://www.w3.org/2000/svg" width="14" height="13" viewBox="0 0 14 13">
  <path fill-rule="evenodd" d="M6.783 1.067C5.341-.2 3.203-.461 1.544.952-.247 2.478-.508 5.05.91 6.867c.539.691 1.592 1.73 2.605 2.684 1.024.963 2.046 1.874 2.55 2.319l.01.008c.047.042.105.094.161.136a.91.91 0 0 0 .289.15c.169.05.35.05.519 0a.91.91 0 0 0 .288-.15c.056-.042.115-.094.162-.136l.01-.008c.504-.445 1.526-1.356 2.55-2.32 1.013-.952 2.066-1.992 2.605-2.683 1.411-1.811 1.19-4.402-.642-5.92-1.678-1.39-3.793-1.147-5.233.12Zm-.455 1.242c-1.06-1.235-2.75-1.513-4.006-.443C1.014 2.98.838 4.824 1.855 6.129c.474.607 1.458 1.585 2.48 2.548a115.16 115.16 0 0 0 2.448 2.227c.522-.46 1.485-1.321 2.448-2.227 1.022-.963 2.007-1.941 2.48-2.548 1.023-1.312.86-3.164-.46-4.258C9.962.804 8.294 1.08 7.239 2.31a.6.6 0 0 1-.911 0Z" clip-rule="evenodd"/>
</svg>
