<svg xmlns="http://www.w3.org/2000/svg" width="17" height="18" viewBox="0 0 17 18">
  <path fill-rule="evenodd" d="M0 7.667a1 1 0 0 1 1-1h3.333a1 1 0 1 1 0 2h-.666v8.166a1 1 0 1 1-2 0V8.667H1a1 1 0 0 1-1-1Zm2.667-2.334a1 1 0 0 1-1-1v-2.5a1 1 0 1 1 2 0v2.5a1 1 0 0 1-1 1Zm3.166 4.834a1 1 0 0 1 1-1H7.5V1a1 1 0 0 1 2 0v8.167h.667a1 1 0 1 1 0 2H6.833a1 1 0 0 1-1-1ZM8.5 17.833a1 1 0 0 1-1-1V13.5a1 1 0 1 1 2 0v3.333a1 1 0 0 1-1 1Zm3.167-10.166a1 1 0 0 1 1-1H16a1 1 0 1 1 0 2h-.667v8.166a1 1 0 1 1-2 0V8.667h-.666a1 1 0 0 1-1-1Zm2.666-2.334a1 1 0 0 1-1-1v-2.5a1 1 0 1 1 2 0v2.5a1 1 0 0 1-1 1Z" clip-rule="evenodd"/>
</svg>
