<svg xmlns="http://www.w3.org/2000/svg" width="24" height="24" viewBox="0 0 24 24"><path d="M0.965372508,8.48898216 C1.24519063,8.48898216 1.47429171,8.39629241 1.65267576,8.21091291 C1.83105981,8.0255334 1.92025184,7.79293459 1.92025184,7.51311647 L1.92025184,6.6316894 L1.71038825,2.96956978 L4.47009444,5.87618048 L7.7019937,9.12906611 C7.87688003,9.31094788 8.0972368,9.40188877 8.36306401,9.40188877 C8.66386849,9.40188877 8.91220707,9.31269675 9.10807975,9.1343127 C9.30395243,8.95592865 9.40188877,8.71983211 9.40188877,8.42602308 C9.40188877,8.28611403 9.37740469,8.15320042 9.32843652,8.02728227 C9.27946835,7.90136411 9.20951382,7.79293459 9.11857293,7.7019937 L5.87618048,4.47009444 L2.96956978,1.71038825 L6.64218258,1.92025184 L7.51311647,1.92025184 C7.79293459,1.92025184 8.02728227,1.83105981 8.2161595,1.65267576 C8.40503673,1.47429171 8.49947534,1.24519063 8.49947534,0.965372508 C8.49947534,0.68555439 8.40678559,0.454704442 8.22140609,0.272822665 C8.03602658,0.0909408884 7.79993005,0 7.51311647,0 L1.68940189,0 C1.15774746,0 0.743266877,0.148653375 0.445960126,0.445960126 C0.148653375,0.743266877 0,1.15774746 0,1.68940189 L0,7.51311647 C0,7.78593914 0.0909408884,8.01678909 0.272822665,8.20566632 C0.454704442,8.39454355 0.68555439,8.48898216 0.965372508,8.48898216 Z M12.4763903,20.0209864 L18.3001049,20.0209864 C18.8387548,20.0209864 19.2567331,19.872333 19.5540399,19.5750262 C19.8513466,19.2777195 20,18.8632389 20,18.3315845 L20,12.5078699 C20,12.2350472 19.9073102,12.0041973 19.7219307,11.81532 C19.5365512,11.6264428 19.3039524,11.5320042 19.0241343,11.5320042 C18.7513116,11.5320042 18.5239594,11.6246939 18.3420776,11.8100735 C18.1601959,11.995453 18.069255,12.2280518 18.069255,12.5078699 L18.069255,13.389297 L18.2896118,17.0514166 L15.5194124,14.1448059 L12.2980063,10.8919203 C12.12312,10.7100385 11.8992655,10.6190976 11.6264428,10.6190976 C11.3326338,10.6190976 11.0860441,10.7082896 10.8866737,10.8866737 C10.6873033,11.0650577 10.587618,11.3011542 10.587618,11.5949633 C10.587618,11.7348723 10.6121021,11.8677859 10.6610703,11.9937041 C10.7100385,12.1196222 10.7834907,12.2280518 10.8814271,12.3189927 L14.1133263,15.5508919 L17.0304302,18.3105981 L13.3578174,18.1007345 L12.4763903,18.1007345 C12.1965722,18.1007345 11.9622246,18.1899265 11.7733473,18.3683106 C11.5844701,18.5466946 11.4900315,18.7757957 11.4900315,19.0556139 C11.4900315,19.335432 11.5844701,19.5662819 11.7733473,19.7481637 C11.9622246,19.9300455 12.1965722,20.0209864 12.4763903,20.0209864 Z" transform="translate(2 2)"/></svg>