<svg xmlns="http://www.w3.org/2000/svg" width="20" height="20" viewBox="0 0 20 20"><path d="M9.99749831,6.66524691 C8.16125767,6.66524691 6.66274522,8.16375936 6.66274522,10 C6.66274522,11.8362406 8.16125767,13.3347531 9.99749831,13.3347531 C11.8337389,13.3347531 13.3322514,11.8362406 13.3322514,10 C13.3322514,8.16375936 11.8337389,6.66524691 9.99749831,6.66524691 Z M19.9992559,10 C19.9992559,8.61906699 20.0117643,7.25064243 19.9342119,5.8722111 C19.8566595,4.27112935 19.4914128,2.85016929 18.3206217,1.67937826 C17.147329,0.506085536 15.7288707,0.143340451 14.1277889,0.065788054 C12.7468559,-0.0117643435 11.3784313,0.000744107746 10,0.000744107746 C8.61906699,0.000744107746 7.25064243,-0.0117643435 5.8722111,0.065788054 C4.27112935,0.143340451 2.85016929,0.508587227 1.67937826,1.67937826 C0.506085536,2.85267098 0.143340451,4.27112935 0.065788054,5.8722111 C-0.0117643435,7.25314412 0.000744107746,8.62156868 0.000744107746,10 C0.000744107746,11.3784313 -0.0117643435,12.7493576 0.065788054,14.1277889 C0.143340451,15.7288707 0.508587227,17.1498307 1.67937826,18.3206217 C2.85267098,19.4939145 4.27112935,19.8566595 5.8722111,19.9342119 C7.25314412,20.0117643 8.62156868,19.9992559 10,19.9992559 C11.380933,19.9992559 12.7493576,20.0117643 14.1277889,19.9342119 C15.7288707,19.8566595 17.1498307,19.4914128 18.3206217,18.3206217 C19.4939145,17.147329 19.8566595,15.7288707 19.9342119,14.1277889 C20.014266,12.7493576 19.9992559,11.380933 19.9992559,10 Z M9.99749831,15.1309667 C7.15807989,15.1309667 4.86653163,12.8394184 4.86653163,10 C4.86653163,7.16058158 7.15807989,4.86903332 9.99749831,4.86903332 C12.8369167,4.86903332 15.128465,7.16058158 15.128465,10 C15.128465,12.8394184 12.8369167,15.1309667 9.99749831,15.1309667 Z M15.338607,5.85720191 C14.6756591,5.85720191 14.1402973,5.32183925 14.1402973,4.65889134 C14.1402973,3.99594342 14.6756591,3.46058171 15.338607,3.46058171 C16.0015549,3.46058171 16.5369175,3.99594342 16.5369175,4.65889134 C16.5373156,4.97682496 16.4111936,5.28185158 16.1863804,5.50666478 C15.9615672,5.73147797 15.6565406,5.85759996 15.338607,5.85720191 L15.338607,5.85720191 Z" transform="translate(.37 .27)"/></svg>