<svg xmlns="http://www.w3.org/2000/svg" width="20" height="20" viewBox="0 0 20 20"><path fill-rule="evenodd" d="M4.34163701,19.9288256 L0.0711743772,19.9288256 L0.0711743772,5.69395018 L4.34163701,5.69395018 L4.34163701,19.9288256 Z M20,19.9288256 L15.7295374,19.9288256 L15.7295374,12.3245552 C15.7295374,10.3430605 15.0234875,9.35658363 13.6241993,9.35658363 C12.5153025,9.35658363 11.8120996,9.9088968 11.4590747,11.0149466 L11.4590747,19.9288256 L7.1886121,19.9288256 C7.1886121,19.9288256 7.2455516,7.11743772 7.1886121,5.69395018 L10.5594306,5.69395018 L10.8199288,8.54092527 L10.9081851,8.54092527 C11.7836299,7.11743772 13.1829181,6.15231317 15.1017794,6.15231317 C16.5608541,6.15231317 17.7409253,6.55800712 18.6419929,7.5772242 C19.5487544,8.59786477 20,9.96725979 20,11.8903915 L20,19.9288256 Z M2.20640569,4.27046263 C3.42496991,4.27046263 4.41281139,3.31448701 4.41281139,2.13523132 C4.41281139,0.955975623 3.42496991,0 2.20640569,0 C0.987841477,0 0,0.955975623 0,2.13523132 C0,3.31448701 0.987841477,4.27046263 2.20640569,4.27046263 Z"/></svg>