<svg xmlns="http://www.w3.org/2000/svg" width="20" height="21" viewBox="0 0 20 21"><path d="M0,7.90048403 C0,8.98683363 0.205728005,10.0060298 0.617184015,10.9580725 C1.02864003,11.9101151 1.59648456,12.7495471 2.32071763,13.4763683 C3.04495069,14.2031894 3.88438262,14.772328 4.83901343,15.1837841 C5.79364424,15.5952401 6.81413444,15.8009681 7.90048403,15.8009681 C8.83727333,15.8009681 9.727917,15.6446621 10.572415,15.3320503 C11.4169131,15.0194384 12.1768842,14.5857631 12.8523285,14.0310244 L18.7591892,19.9639866 C18.8196521,20.0224671 18.8937164,20.0727152 18.9813821,20.1147308 C19.0690477,20.1567465 19.1642575,20.1777543 19.2670114,20.1777543 C19.4197655,20.1777543 19.5507409,20.1435581 19.6599376,20.0751656 C19.7691342,20.0067732 19.8531104,19.9157484 19.9118663,19.8020914 C19.9706221,19.6884344 20,19.5664073 20,19.4360101 C20,19.3434986 19.9815252,19.2551721 19.9445757,19.1710307 C19.9076261,19.0868892 19.8532481,19.0088602 19.7814415,18.9369435 L13.8907703,13.0223184 C14.4846062,12.3379534 14.9514315,11.5571672 15.2912461,10.6799597 C15.6310607,9.80275222 15.8009681,8.87626033 15.8009681,7.90048403 C15.8009681,6.81413444 15.5952401,5.79364424 15.1837841,4.83901343 C14.772328,3.88438262 14.203217,3.04495069 13.4764509,2.32071763 C12.7496847,1.59648456 11.9102528,1.02864003 10.9581551,0.617184015 C10.0060573,0.205728005 8.98683363,0 7.90048403,0 C6.81413444,0 5.79364424,0.205728005 4.83901343,0.617184015 C3.88438262,1.02864003 3.04495069,1.59648456 2.32071763,2.32071763 C1.59648456,3.04495069 1.02864003,3.88438262 0.617184015,4.83901343 C0.205728005,5.79364424 0,6.81413444 0,7.90048403 Z M0.803859052,7.90048403 C0.803859052,6.92283548 0.987560504,6.00589761 1.35496341,5.14967043 C1.72236631,4.29344325 2.23263895,3.53875847 2.88578131,2.88561611 C3.53892367,2.23247375 4.29358091,1.72093459 5.14975303,1.35099863 C6.00592514,0.981062671 6.92283548,0.796094692 7.90048403,0.796094692 C8.87813259,0.796094692 9.79507046,0.981062671 10.6512976,1.35099863 C11.5075248,1.72093459 12.261714,2.23247375 12.9138652,2.88561611 C13.5660163,3.53875847 14.0762614,4.29344325 14.4446005,5.14967043 C14.8129395,6.00589761 14.997109,6.92283548 14.997109,7.90048403 C14.997109,8.87295635 14.8129395,9.78857262 14.4446005,10.6473329 C14.0762614,11.5060931 13.5660163,12.2602823 12.9138652,12.9099004 C12.261714,13.5595185 11.5075248,14.0697911 10.6512976,14.4407183 C9.79507046,14.8116454 8.87813259,14.997109 7.90048403,14.997109 C6.92283548,14.997109 6.00592514,14.8116454 5.14975303,14.4407183 C4.29358091,14.0697911 3.53892367,13.5595185 2.88578131,12.9099004 C2.23263895,12.2602823 1.72236631,11.5060931 1.35496341,10.6473329 C0.987560504,9.78857262 0.803859052,8.87295635 0.803859052,7.90048403 Z"/></svg>