<svg width="400" height="273" viewBox="0 0 400 273" fill="none" xmlns="http://www.w3.org/2000/svg">
<rect width="400" height="272.82" fill="white"/>
<path d="M240.569 63.6005H159.453V209.177H240.569V63.6005Z" fill="#FF5F00"/>
<path d="M164.603 136.389C164.603 108.096 177.736 81.0902 199.882 63.6005C159.71 31.9647 101.513 38.9091 69.839 79.2898C38.1652 119.413 45.118 177.541 85.5472 209.177C119.281 235.668 166.406 235.668 200.139 209.177C177.736 191.687 164.603 164.681 164.603 136.389Z" fill="#EB001B"/>
<path d="M350.011 136.389C350.011 187.572 308.551 228.981 257.307 228.981C236.448 228.981 216.363 222.037 200.139 209.177C240.311 177.541 247.264 119.413 215.59 79.0326C210.955 73.3741 205.805 67.9729 200.139 63.6005C240.311 31.9647 298.766 38.9091 330.182 79.2898C343.058 95.4935 350.011 115.555 350.011 136.389Z" fill="#F79E1B"/>
<path d="M341.255 193.744V190.658H342.543V190.144H339.453V190.658H340.74V193.744H341.255ZM347.178 193.744V190.144H346.148L345.118 192.716L344.088 190.144H343.058V193.744H343.83V190.915L344.861 193.23H345.633L346.663 190.915V193.744H347.178Z" fill="#F79E1B"/>
</svg>
