<svg width="24" height="24" viewBox="0 0 24 24" xmlns="http://www.w3.org/2000/svg"><path d="M21.5041322,17.3286713 C21.5973723,17.3286713 21.680017,17.3053613 21.7520661,17.2587413 C21.8241153,17.2121212 21.8834499,17.1527866 21.9300699,17.0807374 C21.97669,17.0086883 22,16.9260437 22,16.8328036 C22,16.7226107 21.9449036,16.6039415 21.8347107,16.4767959 L21.8347107,16.4767959 L12.4640814,6.24157661 C12.3962704,6.17376563 12.3242212,6.11655012 12.2479339,6.06993007 C12.1716465,6.02331002 12.0868828,6 11.9936427,6 C11.8325917,6 11.680017,6.07628735 11.5359186,6.22886205 L11.5359186,6.22886205 L2.17800381,16.4640814 C2.12714558,16.5149396 2.08476372,16.5721551 2.05085823,16.6357279 C2.01695274,16.6993007 2,16.7649926 2,16.8328036 C2,16.9260437 2.02119093,17.0086883 2.06357279,17.0807374 C2.10595465,17.1527866 2.16528926,17.2121212 2.24157661,17.2587413 C2.31786395,17.3053613 2.40262768,17.3286713 2.49586777,17.3286713 C2.65691884,17.3286713 2.77558805,17.2862895 2.8518754,17.2015257 L2.8518754,17.2015257 L12.0060634,7.21934308 L21.1481246,17.2015257 C21.2091545,17.2693367 21.2973088,17.3100233 21.4125874,17.3235855 L21.5041322,17.3286713 Z" transform="rotate(90 12 11.664)"/></svg>