<svg xmlns="http://www.w3.org/2000/svg" width="42" height="42" viewBox="0 0 42 42"><path fill-rule="evenodd" d="M21.5049232,37.9982909 C21.4192127,37.9977605 21.3372884,37.9634184 21.2778074,37.9028185 L8.57247648,25.4148619 C7.06051718,23.9318407 6.45705549,23.3462768 6.23642876,23.0662245 L6.20398366,23.0662245 C1.12974193,17.6943121 2.75833058,11.5012524 6.41812136,8.0581366 C10.0779121,4.61502081 16.2554779,3.31625703 21.5051827,8.25544618 C22.964953,6.74750879 24.8567709,5.70965192 26.9306968,5.27894845 C29.0046227,4.84824498 31.1629231,5.04490959 33.1207041,5.84316049 C35.1609563,6.57523419 36.9185986,7.91106671 38.1509935,9.66612904 C39.3832155,11.4209538 40.0290375,13.5081072 39.9989976,15.6388809 C40.0017014,17.0258697 39.7244307,18.3997554 39.1831459,19.6811389 C38.6418404,20.9625904 37.847342,22.1261483 36.8453332,23.1049056 L21.7648474,37.9032089 C21.6977942,37.9722952 21.602082,38.0074325 21.5052865,37.9986813 L21.5049232,37.9982909 Z M13.886985,5.66477566 C11.2628594,5.69985179 8.75217911,6.7203522 6.87226634,8.51642098 C3.42661326,11.7561339 1.90184896,17.5609223 6.68408472,22.6653423 L21.5050097,37.2280622 L36.3584663,22.652443 C37.3001877,21.7357724 38.0472384,20.6449941 38.55622,19.4431114 C39.0653399,18.2413646 39.3262505,16.952479 39.3239664,15.6510335 C39.3505983,13.6459948 38.7400929,11.6824377 37.5773294,10.033354 C36.4144276,8.38406657 34.757045,7.13085796 32.8349795,6.44766612 C30.948422,5.68320819 28.8664671,5.5120538 26.8765005,5.95782918 C24.8865339,6.40350272 23.086912,7.44427892 21.7257748,8.93629577 C21.6669687,9.00312813 21.5822065,9.04250857 21.4921701,9.04449779 C21.4022686,9.04595641 21.3156133,9.01148013 21.2520763,8.94902542 C20.311047,7.94603082 19.1742397,7.13849575 17.9091401,6.57428371 C16.6440405,6.01020745 15.276224,5.70085997 13.886985,5.66477566 L13.886985,5.66477566 Z"/></svg>