<svg xmlns="http://www.w3.org/2000/svg" width="24" height="24" viewBox="0 0 24 24"><path fill-rule="evenodd" d="M21.7303755,3.00351165 C20.9581274,1.86882355 19.8494208,1.00494172 18.5603755,0.533511653 C17.3186454,0.0261043791 15.953753,-0.0992428772 14.6403755,0.173511653 C13.4429967,0.418397615 12.3380149,0.993403787 11.4503755,1.83351165 C10.1210806,0.603147771 8.36075673,-0.0542793034 6.55037546,0.00351165268 C4.90419816,0.104766318 3.34788899,0.78897513 2.16037546,1.93351165 C0.858894484,3.13228278 0.0827358733,4.79599313 0.00037546468,6.56351165 C-0.0188697719,8.39343162 0.702437324,10.1534209 2.00037546,11.4435117 C2.15037546,11.6135117 2.46037546,11.9235117 3.14037546,12.5835117 L11.0103755,20.3335117 C11.0980627,20.4108965 11.2052779,20.4627748 11.3203755,20.4835119 L11.4103755,20.4835119 C11.5534457,20.4835119 11.6904963,20.4259482 11.7903755,20.3235117 L20.7903755,11.4435117 C21.4251699,10.8275302 21.9286245,10.0893568 22.2703755,9.27351165 C22.6156969,8.46432652 22.7926247,7.59329708 22.7903755,6.71351165 C22.8297455,5.39691658 22.4593625,4.10057613 21.7303755,3.00351165 Z M11.0603755,3.00351165 C11.1596181,3.11289634 11.3029055,3.17168093 11.4503755,3.16351165 C11.5988738,3.15666326 11.7388212,3.09207213 11.8403755,2.98351165 C12.6140244,2.13187145 13.635278,1.54430091 14.7603755,1.30351165 C15.8888992,1.04522262 17.0697369,1.14304349 18.1403755,1.58351165 C19.2229882,1.95463619 20.1631739,2.65365907 20.8303755,3.58351165 C21.49198,4.51090402 21.8421272,5.62437203 21.8303755,6.76351165 C21.8302108,7.49928817 21.6805146,8.22735607 21.3903755,8.90351165 C21.1001925,9.58551506 20.6788855,10.203885 20.1503755,10.7235117 L11.4603755,19.2435117 L2.80037546,10.7135117 C1.69292723,9.67119601 1.07334294,8.2122277 1.09235158,6.69153635 C1.11136022,5.17084501 1.76721944,3.72781974 2.90037546,2.71351165 C3.9762661,1.67998137 5.40850269,1.09992555 6.90037546,1.09351165 C7.69104356,1.11000363 8.47012464,1.28691287 9.19037546,1.61351165 C9.90145961,1.94534074 10.5376731,2.41824809 11.0603755,3.00351165 Z" transform="translate(.5 2)"/></svg>