<svg xmlns="http://www.w3.org/2000/svg" width="24" height="24" viewBox="0 0 24 24">
  <path fill-rule="evenodd" d="M8.448 23.448C9.6 23.796 10.764 24 12 24A12 12 0 1 0 0 12c0 5.1 3.204 9.48 7.728 11.208-.108-.936-.216-2.484 0-3.552l1.38-5.928s-.348-.696-.348-1.8c0-1.656 1.032-2.892 2.208-2.892 1.032 0 1.512.756 1.512 1.728 0 1.032-.684 2.508-1.032 3.924-.204 1.176.624 2.208 1.824 2.208 2.136 0 3.792-2.28 3.792-5.496 0-2.88-2.064-4.848-5.028-4.848-3.384 0-5.376 2.52-5.376 5.172 0 1.032.336 2.076.888 2.76.108.072.108.168.072.348l-.348 1.308c0 .204-.132.276-.336.132-1.536-.672-2.424-2.856-2.424-4.62 0-3.792 2.688-7.236 7.872-7.236 4.128 0 7.344 2.964 7.344 6.9 0 4.128-2.556 7.44-6.216 7.44-1.164 0-2.304-.624-2.712-1.356l-.804 2.844c-.276 1.032-1.032 2.412-1.548 3.24v-.036Z" clip-rule="evenodd"/>
</svg>
