<svg xmlns="http://www.w3.org/2000/svg" width="24" height="24" viewBox="0 0 24 24">
  <path fill-rule="evenodd" d="M11.995 0a7.2 7.2 0 0 0-7.2 7.2v2.25l-1.08-.81a1.2 1.2 0 1 0-1.44 1.92l2.239 1.68c-.533 1.402-1.832 2.868-3.936 4.132a1.213 1.213 0 0 0-.382 1.694c1.342 2.012 3.47 3.534 5.799 3.534 2.14 0 3.608 2.4 6 2.4 2.413 0 3.85-2.4 6-2.4 2.328 0 4.457-1.522 5.798-3.534a1.212 1.212 0 0 0-.381-1.694c-2.104-1.264-3.404-2.73-3.936-4.132l2.239-1.68a1.2 1.2 0 0 0-1.44-1.92l-1.08.81V7.2a7.2 7.2 0 0 0-7.2-7.2Z" clip-rule="evenodd"/>
</svg>
