<svg xmlns="http://www.w3.org/2000/svg" width="14" height="15" viewBox="0 0 14 15">
  <path fill-rule="evenodd" d="M7.974 3.174a.726.726 0 0 0 1.026 0l.696-.697v9.862a.726.726 0 1 0 1.452 0V2.477l.697.697a.727.727 0 1 0 1.026-1.026L10.935.212a.726.726 0 0 0-1.026 0L7.974 2.148a.726.726 0 0 0 0 1.026Zm-4.569 9.349.697-.697a.726.726 0 1 1 1.026 1.026l-1.935 1.936a.726.726 0 0 1-1.026 0L.23 12.852a.726.726 0 1 1 1.026-1.026l.697.697V2.661a.726.726 0 0 1 1.451 0v9.862Z" clip-rule="evenodd"/>
</svg>
