<svg xmlns="http://www.w3.org/2000/svg" width="24" height="24" viewBox="0 0 24 24">
  <path fill-rule="evenodd" d="M19.077 10.638C15.213 8.341 8.84 8.13 5.152 9.251a1.123 1.123 0 0 1-.65-2.148c4.233-1.287 11.271-1.039 15.72 1.605a1.123 1.123 0 0 1-1.145 1.93Zm-.126 3.403a.934.934 0 0 1-1.286.308c-3.221-1.982-8.133-2.557-11.944-1.399a.936.936 0 0 1-.543-1.79c4.353-1.322 9.765-.682 13.465 1.594.44.271.578.847.308 1.287Zm-1.467 3.267a.746.746 0 0 1-1.027.25c-2.815-1.723-6.358-2.112-10.53-1.158a.747.747 0 1 1-.333-1.458c4.566-1.045 8.483-.595 11.642 1.338a.748.748 0 0 1 .248 1.028ZM11.987 0C5.367 0 0 5.372 0 12s5.367 12 11.987 12 11.987-5.372 11.987-12S18.607 0 11.987 0Z" clip-rule="evenodd"/>
</svg>
