<svg xmlns="http://www.w3.org/2000/svg" width="21" height="24" viewBox="0 0 21 24">
  <path fill-rule="evenodd" d="M2.77 3.148C4.628 1.168 7.32 0 10.652 0c5.478 0 9.11 3.157 10.26 7.532a1.2 1.2 0 0 1-2.322.61C17.717 4.826 15.042 2.4 10.65 2.4c-2.743 0-4.776.947-6.127 2.388C3.16 6.242 2.4 8.296 2.4 10.65v2.7c0 2.354.76 4.408 2.123 5.86 1.351 1.444 3.384 2.39 6.127 2.39 1.986 0 3.562-.46 4.771-1.206 1.218-.75 1.944-1.745 2.148-2.886.234-1.315-.054-2.218-.55-2.87a3.873 3.873 0 0 0-.976-.888c-.162.898-.451 1.747-.888 2.412-1.61 2.446-4.69 2.656-6.72 1.846-1.1-.438-2.041-1.636-2.334-2.922a3.622 3.622 0 0 1 .169-2.211c.318-.763.907-1.414 1.746-1.908.83-.491 2.064-.717 3.287-.75.737-.02 1.536.029 2.34.16-.168-.78-.453-1.363-.773-1.661-.58-.54-1.543-.92-2.508-.915-.932.007-1.723.366-2.196 1.122a1.2 1.2 0 0 1-2.035-1.272c1.004-1.605 2.659-2.238 4.215-2.25 1.524-.01 3.094.567 4.16 1.558 1.077 1.003 1.54 2.648 1.66 4.145 1.05.457 2.04 1.128 2.766 2.084.938 1.236 1.34 2.83 1 4.741-.348 1.949-1.578 3.478-3.252 4.509C15.038 23.448 13.013 24 10.65 24c-3.331 0-6.024-1.169-7.878-3.148C.929 18.887 0 16.216 0 13.35v-2.7c0-2.866.929-5.537 2.772-7.502h-.001Zm10.98 9.692a10.017 10.017 0 0 0-2.382-.223c-1.07.029-1.82.231-2.133.416-.46.273-.66.55-.749.765a1.23 1.23 0 0 0-.045.756c.146.643.63 1.125.883 1.225 1.351.54 3.042.254 3.826-.936.282-.43.506-1.152.6-2.003Z" clip-rule="evenodd"/>
</svg>
