<svg xmlns="http://www.w3.org/2000/svg" width="20" height="20" viewBox="0 0 20 20"><path fill-rule="evenodd" d="M6.87600856,1.24943266 L6.87596952,5.61972371 L11.2550257,5.61972371 L11.2550257,7.49316016 L6.89533482,7.49316016 L6.88908795,12.9304362 C6.88908795,13.9411799 6.94156166,14.5899369 7.04838314,14.8776053 C7.21486224,15.3314404 7.82080868,15.9123994 8.94555771,15.9123994 C9.81795269,15.9123994 10.9948631,15.6500308 11.8769017,14.9900489 L11.8769017,17.9048387 C11.1413327,18.2555809 10.4573004,18.3970726 9.86134892,18.5385837 C9.26477279,18.6794311 8.61855356,18.7503331 7.92579514,18.7503331 C7.15397478,18.7503331 4.92602843,18.7290937 4.01179893,16.3999676 C3.8471939,15.9808221 3.76475473,15.3720646 3.76475473,14.5752763 L3.76475473,7.49632264 L1.24945234,7.49632264 L1.26163373,5.58071982 C2.09434157,5.58071982 4.59246506,5.07501613 4.59246506,1.24943266 L6.87600856,1.24943266 Z M6.87596952,0 L4.59242602,0 C3.90245918,0 3.34305193,0.55940725 3.34305193,1.24937409 C3.34305193,4.10919139 1.74947527,4.33126764 1.26159469,4.33126764 C0.574126596,4.33126764 0.0153440328,4.88692676 0.0122205975,5.57439486 L1.93932149e-05,7.48999769 C-0.00183486102,7.8223312 0.129349419,8.14154628 0.363607061,8.37765846 C0.598226315,8.61318131 0.916972009,8.74558693 1.24941329,8.74561865 L2.51534159,8.74561865 L2.51534159,14.5751982 C2.51534159,15.5390903 2.62466183,16.2859036 2.84892448,16.8568676 C3.41206033,18.2905244 4.74984716,20 7.9257561,20 C8.71223709,20 9.45996797,19.9175413 10.148705,19.7548103 L10.2864289,19.7223266 C10.8695743,19.5852078 11.6145136,19.4143559 12.4144254,19.0329845 C12.8493847,18.8257845 13.1262563,18.3868823 13.1262563,17.9050925 L13.1262563,14.9903222 C13.1262563,14.5174303 12.8591606,14.085097 12.4362894,13.8734208 C12.2595225,13.7844029 12.067724,13.7409872 11.8768821,13.7409872 C11.6070841,13.7409938 11.3445351,13.8283253 11.1284875,13.989925 C10.3848171,14.546853 9.43310642,14.6633376 8.94583101,14.6633376 C8.44608137,14.6633376 8.26025649,14.4821784 8.21933949,14.4340775 C8.19811965,14.3360016 8.13877438,13.969935 8.13877438,12.9307681 L8.14312767,8.74286612 L11.2550062,8.74286612 C11.944973,8.74286612 12.5043803,8.18343935 12.5043803,7.49349203 L12.5043803,5.62001653 C12.5043803,4.93004969 11.944973,4.37064244 11.2550062,4.37064244 L8.12532409,4.37064244 L8.12532409,1.24941314 C8.12532409,0.559446293 7.56591684,0 6.87595,0 L6.87596952,0 Z" transform="translate(3)"/></svg>