<svg xmlns="http://www.w3.org/2000/svg" width="16" height="23"  viewBox="0 0 16 23">
  <path fill-rule="evenodd" d="M4.156 6.333a3.859 3.859 0 1 1 7.718 0 3.859 3.859 0 0 1-7.718 0ZM8.015.858a5.474 5.474 0 1 0 0 10.95 5.474 5.474 0 0 0 0-10.95ZM2.953 16.317a3.859 3.859 0 0 1 2.729-1.13h4.666a3.859 3.859 0 0 1 3.86 3.859v2.333a.808.808 0 1 0 1.615 0v-2.334a5.475 5.475 0 0 0-5.475-5.474H5.682a5.475 5.475 0 0 0-5.475 5.475v2.333a.808.808 0 1 0 1.616 0v-2.334c0-1.023.406-2.005 1.13-2.728Z" clip-rule="evenodd"/>
</svg>
