<svg xmlns="http://www.w3.org/2000/svg" width="28" height="24" viewBox="0 0 28 24">
  <path fill-rule="evenodd" d="M27.676 5.554c-.125 2.698-2.007 6.393-5.646 11.098C18.266 21.578 15.083 24 12.454 24c-1.591 0-2.961-1.494-4.082-4.497-.761-2.713-1.453-5.453-2.228-8.192-.83-2.99-1.716-4.484-2.685-4.484-.193 0-.913.443-2.158 1.315L0 6.454a262.274 262.274 0 0 0 4.04-3.612C5.868 1.264 7.238.434 8.138.35c2.158-.221 3.487 1.273 3.985 4.428.54 3.418.913 5.535 1.12 6.366.596 2.822 1.288 4.206 2.049 4.206.581 0 1.453-.885 2.615-2.726 1.163-1.826 1.785-3.224 1.868-4.193.166-1.577-.456-2.366-1.868-2.366-.664 0-1.342.152-2.048.457C17.214 2.053 19.816-.12 23.65.005c2.85.083 4.193 1.937 4.027 5.55Z" clip-rule="evenodd"/>
</svg>
