<svg xmlns="http://www.w3.org/2000/svg" width="24" height="22" viewBox="0 0 24 22">
  <path fill-rule="evenodd" d="M17.836 6.105a9.939 9.939 0 0 0-1.333-.093c-4.97 0-9.006 3.38-8.994 7.52 0 .491.058.96.164 1.415a10.892 10.892 0 0 1-2.188-.55L2.257 15.79l1.182-2.375C1.345 12.035 0 9.918 0 7.52 0 3.368 4.035 0 9.006 0c4.386 0 8.035 2.632 8.83 6.105Zm-5.406-2.64a1.123 1.123 0 1 0-.86 2.075 1.123 1.123 0 0 0 .86-2.074ZM5.206 5.31a1.123 1.123 0 1 0 1.588-1.59 1.123 1.123 0 0 0-1.588 1.588Z" clip-rule="evenodd"/>
  <path fill-rule="evenodd" d="M16.503 7.52c4.14 0 7.497 2.69 7.497 6.012 0 1.93-1.146 3.614-2.9 4.714l1.403 2.807-4.047-1.743a8.84 8.84 0 0 1-1.953.234c-4.14 0-7.497-2.69-7.497-6.012 0-3.321 3.357-6.011 7.497-6.011Zm-2.881 5.449c.184.123.401.189.623.189.62 0 1.135-.503 1.123-1.123a1.123 1.123 0 1 0-1.746.934Zm4.332-.14a1.123 1.123 0 1 0 1.588-1.588 1.123 1.123 0 0 0-1.588 1.588Z" clip-rule="evenodd"/>
</svg>
