<svg xmlns="http://www.w3.org/2000/svg" width="24" height="24" viewBox="0 0 24 24">
  <path fill-rule="evenodd" d="M12 0c6.628 0 12 5.372 12 12s-5.372 12-12 12a11.945 11.945 0 0 1-6.036-1.626L.004 24l1.623-5.962A11.944 11.944 0 0 1 0 12C0 5.372 5.372 0 12 0ZM7.91 6.36l-.24.01c-.155.01-.307.05-.446.12a1.53 1.53 0 0 0-.353.273c-.144.136-.225.253-.313.367a3.276 3.276 0 0 0-.68 2.014c.003.588.157 1.16.397 1.696.49 1.082 1.298 2.228 2.364 3.29.257.256.509.512.78.751a11.339 11.339 0 0 0 4.608 2.455l.681.105c.222.012.444-.005.668-.016a2.39 2.39 0 0 0 1-.277c.156-.081.31-.17.459-.264 0 0 .051-.034.15-.108.162-.12.261-.205.396-.346.1-.103.186-.224.252-.362.093-.196.187-.569.225-.88.03-.237.02-.367.017-.447-.005-.129-.111-.262-.228-.318l-.698-.313s-1.044-.455-1.683-.746a.595.595 0 0 0-.21-.049.579.579 0 0 0-.454.153c-.006-.003-.087.066-.954 1.117a.42.42 0 0 1-.442.156 1.714 1.714 0 0 1-.23-.08c-.148-.062-.2-.086-.302-.129a7.23 7.23 0 0 1-1.89-1.204c-.15-.132-.291-.276-.435-.415a7.556 7.556 0 0 1-1.224-1.521l-.071-.114a1.107 1.107 0 0 1-.122-.246c-.046-.177.073-.318.073-.318s.291-.32.427-.492c.132-.168.244-.332.316-.448.141-.228.186-.462.111-.643a99.909 99.909 0 0 0-1.041-2.45c-.071-.16-.281-.275-.472-.298-.065-.007-.13-.015-.194-.02a4.06 4.06 0 0 0-.484.005l.242-.008Z" clip-rule="evenodd"/>
</svg>
