<svg xmlns="http://www.w3.org/2000/svg" width="24" height="24" viewBox="0 0 24 24">
  <path fill-rule="evenodd" d="M23.998 11.998v-.006c0-3.55-1.546-6.74-4-8.932l-.013-.01a.593.593 0 0 0-.1-.087l-.003-.001A11.916 11.916 0 0 0 11.997 0c-3.032 0-5.8 1.126-7.91 2.984l.014-.011a.48.48 0 0 0-.07.065A11.962 11.962 0 0 0 0 12a11.95 11.95 0 0 0 3.997 8.932l.012.01a.675.675 0 0 0 .106.097l.002.001a11.92 11.92 0 0 0 7.88 2.96 11.929 11.929 0 0 0 7.91-2.984l-.013.011A11.939 11.939 0 0 0 24 12.006v-.007l-.002-.001Zm-4.462 7.804a11.93 11.93 0 0 0-1.909-1.261l-.064-.032c.613-1.767.982-3.804 1.016-5.923v-.016h4.261a10.823 10.823 0 0 1-3.3 7.23l-.004.002Zm-6.965-1.505a10.83 10.83 0 0 1 3.588.81l-.072-.026c-.886 2.02-2.133 3.408-3.516 3.713v-4.497Zm0-1.143V12.57h4.868a18.59 18.59 0 0 1-.976 5.578l.039-.131a11.637 11.637 0 0 0-3.903-.862l-.027-.001h-.001Zm0-5.728V6.842a11.909 11.909 0 0 0 4.007-.89l-.08.029c.556 1.618.896 3.484.94 5.424v.021h-4.867Zm0-5.727V1.204c1.383.305 2.63 1.687 3.516 3.713-1.034.43-2.233.71-3.487.78l-.029.002Zm2.854-4a10.84 10.84 0 0 1 3.257 1.752l-.023-.018c-.442.348-.94.676-1.463.96l-.056.029c-.424-1-1.006-1.924-1.724-2.737l.009.01V1.7Zm-4-.492v4.492a10.803 10.803 0 0 1-3.588-.81l.072.026c.89-2.02 2.135-3.407 3.518-3.712l-.002.004ZM6.857 4.419a10.942 10.942 0 0 1-1.543-1.007l.024.018a10.743 10.743 0 0 1 3.157-1.712l.076-.023a9.985 9.985 0 0 0-1.689 2.658l-.025.066Zm4.57 2.422v4.584H6.559a18.55 18.55 0 0 1 .98-5.576l-.04.13c1.241.51 2.561.801 3.901.861l.027.001Zm0 5.728v4.584a11.908 11.908 0 0 0-4.007.89l.08-.028c-.556-1.618-.897-3.485-.94-5.425v-.021h4.867Zm0 5.728v4.494c-1.383-.305-2.63-1.687-3.516-3.713 1.034-.43 2.233-.71 3.487-.78l.029-.001Zm-2.85 4a10.845 10.845 0 0 1-3.257-1.749l.024.018c.443-.348.94-.676 1.463-.96l.056-.029c.42 1 1.002 1.923 1.723 2.733l-.009-.01v-.004Zm8.564-2.72c.58.314 1.077.641 1.543 1.006l-.024-.018a10.743 10.743 0 0 1-3.157 1.712l-.076.023a9.98 9.98 0 0 0 1.689-2.657l.025-.065v-.002Zm5.7-8.15h-4.262a19.658 19.658 0 0 0-1.058-6.078l.041.138a12.38 12.38 0 0 0 1.997-1.312l-.024.018a10.812 10.812 0 0 1 3.303 7.204l.001.028.001.001ZM4.46 4.193a11.99 11.99 0 0 0 1.91 1.262l.064.032c-.611 1.767-.98 3.803-1.014 5.923v.016H1.157a10.823 10.823 0 0 1 3.3-7.23l.005-.002ZM1.159 12.57h4.26c.031 2.069.388 4.12 1.058 6.078l-.04-.139c-.751.4-1.397.828-1.997 1.312l.024-.018A10.812 10.812 0 0 1 1.16 12.6l-.001-.028-.001-.001Z" clip-rule="evenodd"/>
</svg>
