<svg xmlns="http://www.w3.org/2000/svg" width="20" height="20" viewBox="0 0 20 20"><path fill-rule="evenodd" d="M19.8181818,3.27272727 C19.6363636,1.90909091 19.4545455,0.909090909 18.9090909,0.545454545 C18.3636364,0.0909090909 13.6363636,0 10,0 C6.36363636,0 1.63636364,0.0909090909 1.09090909,0.545454545 C0.545454545,0.909090909 0.363636364,1.90909091 0.181818182,3.27272727 C0,4.63636364 0,5.45454545 0,6.36363636 C0,7.27272727 0,8.09090909 0.181818182,9.45454545 C0.363636364,10.8181818 0.545454545,11.8181818 1.09090909,12.1818182 C1.63636364,12.6363636 6.36363636,12.7272727 10,12.7272727 C13.6363636,12.7272727 18.3636364,12.6363636 18.9090909,12.1818182 C19.4545455,11.8181818 19.6363636,10.8181818 19.8181818,9.45454545 C20,8.09090909 20,7.27272727 20,6.36363636 C20,5.45454545 20,4.63636364 19.8181818,3.27272727 Z M8.18181818,9.63636364 L8.18181818,3.09090909 L13.6363636,6.36363636 L8.18181818,9.63636364 Z" transform="translate(0 4)"/></svg>